<?xml version="1.0" encoding="UTF-8"?><svg id="uuid-495fc0e5-8d6d-4672-bb23-30e9dc509225" xmlns="http://www.w3.org/2000/svg" viewBox="0 0 372.53 247.84"><g id="uuid-bd62a9bf-f347-454d-9873-4f463157869a"><g id="uuid-ce5cabdc-ef15-4800-a779-781caf3b1ccc"><path id="uuid-da31da08-cf79-4dc9-a4a0-1c58ba517252" d="M359.68,80.28C300.98-22.7,87.46-24.32,44.76,90.66c-6.24,16.8-25.22,34.41-38.08,39.51,11.61,5.43,25.84,14.81,37.59,36.06,70.04,126.64,306.05,96.59,324.19-26.18h-64.94c-59.87,105.48-207.99,44.11-207.99-9.88,0-77.04,124.68-100.27,187-49.88h77.14Z" style="fill:#fff; fill-rule:evenodd;"/><path id="uuid-ad98993b-0139-41bb-9c1f-6e971f202908" d="M339.87,68.31C279.21-2.73,106.9-19.64,53.76,94.19c-4.56,12.53-13.02,23.76-25.39,33.69,11.61,5.36,19.95,15.64,26.36,28.81,69.22,126.29,282.61,77.91,300.76-9.28h-43.94c-59.87,104.27-226.54,48.92-226.54-19.53,0-84.46,138.83-109.38,201.16-59.57h53.71,0Z" style="fill:#c83803; fill-rule:evenodd;"/><g id="uuid-df741ce6-2e2e-497b-af13-2659b7103e49"><path id="uuid-7b72fdee-5733-467a-88ab-caf307d80c29" d="M48.16,89.84l-5.41-2.04h0l4.61-10.58,5.58-9.91,6.48-9.22,7.32-8.51,8.09-7.83,8.79-7.14,9.44-6.45,10.02-5.78,10.54-5.1,10.99-4.43,11.39-3.77,11.74-3.12,12.01-2.46,12.24-1.81,12.39-1.16,12.5-.52,12.54.11,12.53.74,12.46,1.39,12.33,2.01,12.15,2.64,11.89,3.27,11.59,3.89,11.22,4.52,10.8,5.14,10.31,5.77,9.76,6.39,9.16,7,8.48,7.63,7.76,8.26,6.95,8.87,6.1,9.49-5.01,2.88-5.8-9.01-6.64-8.46-7.4-7.88-8.14-7.31-8.8-6.75-9.42-6.16-9.97-5.57-10.46-4.98-10.9-4.39-11.27-3.8-11.59-3.18-11.83-2.58-12.03-1.97-12.17-1.34-12.24-.74-12.26-.11-12.2.52-12.1,1.14-11.92,1.77-11.7,2.39-11.4,3.03-11.05,3.66-10.65,4.3-10.17,4.93-9.64,5.55-9.05,6.2-8.42,6.83-7.71,7.46-6.96,8.11-6.16,8.74-5.29,9.39-4.38,10.06h0ZM48.16,89.84h0ZM8.59,125.24l-2.42,5.26.16-5.32,1.12-.46,1.15-.53,1.21-.6,1.23-.68,1.26-.73,1.28-.8,1.31-.85,1.32-.91,1.33-.95,1.35-1.02,1.35-1.07,1.34-1.1,1.34-1.16,1.33-1.18,1.32-1.24,1.3-1.26,1.29-1.31,1.26-1.33,1.24-1.35,1.2-1.38,1.17-1.41,1.14-1.42,1.09-1.44,1.05-1.45,1.01-1.47.95-1.47.9-1.48.84-1.48.78-1.47.72-1.48.66-1.46.58-1.46,5.41,2.04-.67,1.66-.73,1.66-.81,1.64-.87,1.65-.93,1.63-.99,1.61-1.04,1.61-1.08,1.58-1.14,1.57-1.18,1.55-1.21,1.53-1.26,1.5-1.29,1.47-1.31,1.44-1.35,1.42-1.36,1.37-1.39,1.35-1.41,1.3-1.42,1.28-1.43,1.22-1.43,1.19-1.44,1.13-1.44,1.09-1.44,1.05-1.43.98-1.42.94-1.42.87-1.4.82-1.39.75-1.36.69-1.36.62-1.33.55.16-5.32h0ZM6.17,130.5l-6.17-2.85,6.32-2.47s-.16,5.32-.16,5.32ZM47.48,162.1l-5.05,2.83h0s-1.07-1.89-1.07-1.89l-1.1-1.81-1.1-1.76-1.11-1.68-1.12-1.63-1.12-1.56-1.14-1.51-1.14-1.44-1.16-1.39-1.15-1.34-1.16-1.28-1.16-1.22-1.16-1.18-1.17-1.14-1.17-1.08-1.17-1.03-1.17-1-1.17-.94-1.16-.91-1.16-.87-1.15-.83-1.15-.79-1.15-.75-1.14-.73-1.14-.69-1.12-.65-1.11-.63-1.11-.6-1.09-.58-1.09-.54-1.08-.53-1.06-.49,2.42-5.26,1.13.54,1.14.55,1.16.59,1.18.6,1.18.64,1.2.67,1.21.72,1.21.74,1.23.77,1.24.82,1.24.86,1.26.9,1.25.94,1.25.98,1.26,1.03,1.26,1.07,1.26,1.12,1.26,1.17,1.26,1.2,1.25,1.27,1.25,1.33,1.25,1.37,1.24,1.43,1.23,1.48,1.23,1.55,1.21,1.6,1.21,1.67,1.19,1.72,1.18,1.79,1.17,1.85,1.14,1.92,1.14,1.99h0ZM42.43,164.93h0s20.29,36.25,20.29,36.25c0,0-20.29-36.25-20.29-36.25ZM369.17,140.54v-5.8l2.87,3.32-2.4,11.44-3.65,10.88-4.81,10.29-5.89,9.7-6.91,9.07-7.84,8.45-8.7,7.81-9.48,7.17-10.2,6.51-10.83,5.85-11.4,5.18-11.9,4.5-12.33,3.8-12.7,3.12-12.98,2.4-13.2,1.68-13.35.95-13.44.21-13.45-.54-13.4-1.32-13.27-2.09-13.08-2.88-12.8-3.69-12.48-4.51-12.07-5.34-11.59-6.18-11.04-7.05-10.42-7.92-9.73-8.81-8.95-9.7-8.11-10.6-7.19-11.51,5.05-2.83,6.9,11.06,7.77,10.17,8.61,9.31,9.34,8.45,10.04,7.62,10.66,6.79,11.21,5.98,11.69,5.18,12.1,4.37,12.46,3.58,12.72,2.81,12.93,2.04,13.06,1.27,13.13.54,13.12-.21,13.04-.93,12.88-1.64,12.66-2.35,12.36-3.03,11.99-3.71,11.56-4.37,11.06-5.02,10.47-5.65,9.82-6.28,9.11-6.88,8.32-7.47,7.48-8.04,6.55-8.62,5.58-9.16,4.53-9.7,3.42-10.24,2.26-10.78,2.87,3.32h0ZM369.17,134.74h3.36l-.5,3.32-2.87-3.32ZM301.7,136.2l2.51-1.46h64.95v5.8h-64.95l-2.51-4.34ZM301.7,136.2l.84-1.46h1.68l-2.51,1.46h0ZM93.34,127.87h5.8l.38,4.54,1.15,4.61,1.89,4.65,2.61,4.67,3.3,4.64,3.95,4.57,4.56,4.45,5.13,4.3,5.65,4.11,6.14,3.88,6.58,3.63,6.96,3.34,7.32,3.01,7.62,2.65,7.87,2.27,8.09,1.83,8.26,1.39,8.39.9,8.47.4,8.51-.16,8.5-.74,8.44-1.33,8.35-1.96,8.23-2.64,8.04-3.32,7.83-4.05,7.59-4.79,7.29-5.59,6.96-6.42,6.59-7.27,6.19-8.16,5.73-9.09,5.03,2.88-6,9.5-6.49,8.57-6.95,7.65-7.35,6.76-7.7,5.91-8.01,5.08-8.28,4.27-8.5,3.51-8.66,2.77-8.78,2.08-8.87,1.4-8.89.76-8.87.16-8.83-.4-8.73-.94-8.6-1.44-8.41-1.92-8.19-2.34-7.92-2.76-7.61-3.14-7.28-3.48-6.87-3.79-6.44-4.09-5.97-4.34-5.45-4.57-4.9-4.77-4.29-4.95-3.64-5.11-2.93-5.25-2.18-5.37-1.35-5.45-.47-5.5h0ZM93.34,127.87h0ZM283.23,75.67v5.8l-1.8-.64-5.85-4.32-6.18-3.93-6.48-3.52-6.75-3.12-6.98-2.72-7.17-2.33-7.33-1.93-7.47-1.55-7.56-1.15-7.62-.76-7.64-.39h-7.64s-7.6.38-7.6.38l-7.51.75-7.39,1.11-7.24,1.48-7.05,1.83-6.83,2.2-6.58,2.54-6.29,2.89-5.96,3.22-5.6,3.56-5.22,3.89-4.79,4.2-4.33,4.51-3.86,4.82-3.34,5.13-2.8,5.44-2.23,5.73-1.64,6.05-1.01,6.36-.34,6.69h-5.8l.38-7.28,1.1-6.97,1.8-6.64,2.46-6.32,3.08-5.96,3.66-5.61,4.19-5.25,4.7-4.89,5.15-4.52,5.56-4.14,5.96-3.78,6.3-3.42,6.62-3.03,6.9-2.67,7.15-2.29,7.37-1.92,7.54-1.54,7.69-1.16,7.8-.77,7.87-.38h7.91s7.94.39,7.94.39l7.91.8,7.86,1.2,7.76,1.59,7.65,2.02,7.49,2.43,7.3,2.85,7.07,3.28,6.82,3.71,6.52,4.14,6.19,4.59-1.8-.64h0ZM283.23,81.47h-.99l-.81-.64,1.8.64h0ZM362.89,77.13l-2.5,4.34h-77.15v-5.8h77.15l2.5,1.46h0ZM362.89,77.13l2.5,4.34h-5.01l2.5-4.34Z" style="fill:#0b162a;"/></g></g></g></svg>