<?xml version="1.0" encoding="UTF-8"?><svg id="uuid-d9eba8f9-3111-46b0-898c-5844a8efcacc" xmlns="http://www.w3.org/2000/svg" viewBox="0 0 367.03 363.38"><path d="M293.17,339.74c-3.94,15.62-44.53,7.12-55.84,9.39,2.46-2.31,5.02-4.53,7.41-6.92,10.98-1.21,28.03,3.65,30.64-5.93-4.18-7.54-23.35-2.54-23.22-11.86.12-8.55,9.7-16.26,17.29-19.27-4.51-.71-9.6,2.25-11.86,5.44,3.69-14.27,32.18-8.01,50.4-9.39.84,1.42-4.67,4.81-6.42,6.92-10.14.74-24.5-2.76-26.68,5.93,3.73,7.6,20.46,3.48,22.73,11.37,2.54,8.79-10.81,17.37-16.31,19.76,4.27.48,9.5-2.35,11.86-5.43Z" style="fill:#006db0; fill-rule:evenodd;"/><path d="M223,301.69c1.71,9.16,4.66,17.08,6.42,26.19,5.7-12.42,7.07-29.17,27.67-26.68-18.49,10.67-9.64,51.3-40.52,47.93-3.12-7.59-5.55-15.86-8.4-23.72-3.1,13.67-11.65,26.48-27.18,23.72,15.92-10.1,12.15-37.96,32.12-44.47-5.22.54-8.53,3-11.86,5.44-.59.69-.19.04,0-.49,3.29-6.3,12.25-9.44,21.74-7.91Z" style="fill:#006db0; fill-rule:evenodd;"/><path d="M128.62,348.63c-3.75,22.28-44.28,12.05-69.67,14.33,21.89-13.69,15.25-55.91,43.98-62.76-6.66-1.05-12.46,3.02-15.81,6.92,1.3-11.38,21.66-12.7,33.6-11.86-1.07,2.55-5.28,3.9-7.41,5.93-13.2,12.55-11.31,42.12-26.68,52.87,8.84-1.49,36.48,4.2,42-5.43Z" style="fill:#006db0; fill-rule:evenodd;"/><path d="M153.82,337.76c-1.26,1.65-4.41,2.42-3.95,4.45,25.43,3.69,17.94-25.55,31.13-34.1-23.04-4.92-19.34,19.41-27.18,29.65ZM201.76,301.19c.91,1.93-3.22,3.34-4.94,5.44-8.26,10.04-8.25,38.97-24.21,42-4.95.94-26.82,1.44-32.12,0-9.66-2.63-1.69-16.88,1.48-25.2,3.85-10.1,8.67-14.87,17.29-18.28-4.46-.67-9.56,2.29-11.86,5.44,5.18-15.09,35.1-7.52,54.36-9.39Z" style="fill:#006db0; fill-rule:evenodd;"/><path d="M134.55,305.15c-4.39-.76-9.25,2.28-11.86,4.94,1.11-7.82,15.11-9.55,24.71-8.89-1.31,3.05-3.92,3.3-5.93,5.93-8.95,11.72-8.11,36.68-22.24,41.01-5.31,1.63-11.54.45-15.1.47-.25,0-.49,0-.15-.26,12.64-10.19,11.15-38.4,30.57-43.2Z" style="fill:#006db0; fill-rule:evenodd;"/><path d="M240.29,0c6.48,4.2,12.92,8.51,19.71,12.23,7.28,4.31,15.57,6.33,23.53,8.92,5.45,1.63,10.39,5.33,12.69,10.64,3.02,1.38,6.1,2.71,8.78,4.7,2.93,2.28,4.65,5.68,5.97,9.07,4.97,2.08,9.82,4.47,14.42,7.28,6.33,3.95,11.77,9.16,17.04,14.39-4.19,2.27-7.91,5.5-10.54,9.48-1.55,3.8-2.83,7.79-5.39,11.08,5.33-4.25,13.43-3.97,18.54.49,6.86-.62,13.77,2.13,18.53,7.06,3.3,3.49,4.33,8.9,2.66,13.38-1.21,2.59-.32,5.65-1.8,8.16-1.17,2.66-3.61,4.34-5.5,6.43-1.92,3.45-4.8,6.5-8.61,7.79-4.08,1.37-8.43.48-12.46-.53-5.51.99-11.24.9-16.48-1.26-1.51,2.28-3.07,4.52-4.69,6.73,3.77,3.09,8.06,5.64,12.82,6.85,5.26,1.47,11.21,2.62,14.48,7.49,9.91-1.7,19.69,5.58,22.27,15,.83,3.06.76,6.39-.41,9.34-.99,2.79-3.63,4.58-4.53,7.43-1.56,4.1-5.24,7.14-9.62,7.66-4.63,4.29-11.93,5.08-17.36,1.85-4.96-.58-10.33-.67-14.65-3.56-2.63-1.59-4.51-4.03-6.56-6.24-5.26-2.45-11.22-1.88-16.82-2.81-8.46-1.36-16.97-3.24-24.71-7.02-5.52,1.76-11.32,2.2-17.06,2.6-1.29-3.22-3-6.31-5.51-8.75-9.61,5.12-19.12,11.33-30.17,12.63-.77,4.12-1.68,8.26-3.25,12.17-2.26,5.6-7.25,9.71-12.74,11.96,6.28,2.47,11.46,7.95,12.51,14.75,1.04,5.06-1.77,10.11-5.79,13.04-1.66,3.72-5.02,6.67-9.04,7.52-3.85,1.16-8.01-.43-11.75,1.21-5.88,2.13-12.13-.01-17.09-3.33-7.37.48-14.75,1.49-22.14.9-5.35-.47-9.89-4.18-11.93-9.07-3.02,2.22-6.3,4.09-9.72,5.61-5.55,2.73-11.04,5.66-16.12,9.2.29,1.09-.32,2.81,1.02,3.33,4.18,2.08,7.7,5.91,8.37,10.65.37,3.55.17,7.35-1.66,10.52-1.18,2.23-3.49,3.52-4.82,5.63-1.69,2.54-4.16,4.7-7.19,5.42-2.56.84-5.32,0-7.88.81-4.19,1.21-8.89,1.08-12.75-1.11-5.33-3.07-8.9-9.11-8.66-15.3.55-7.5.8-15.05.81-22.56-2.51-4.29-4.14-9.64-1.86-14.39,2.05-5.28,7.87-7.55,10.35-12.51,2.2-3.94,2.41-8.56,2.73-12.96.27-5.23.88-10.44,1.14-15.67-7.23-2.29-14.39-5.39-20.17-10.4-5.12-4.87-9.39-10.81-11.77-17.51-2.67-7.22-3.04-15.15-6.46-22.1-1.46-3.08-3.86-5.6-6.61-7.57-6.67,1.35-13.73-.91-18.4-5.82-3.54-3-5.47-7.8-9.92-9.68-5.66-2.66-11.93-3.62-18.1-4.27,9.45-9.7,21.74-17.23,35.41-18.69,5.69-.73,11.71.83,16.05,4.63,3.24,2.68,5.34,6.46,6.65,10.41,12.03,5.4,21.13,16.41,24.75,29.02,1.51,5.31,2.51,11.06,6.18,15.42,3.54,4.43,9,6.79,14.41,8,5.72-5.3,10.93-11.79,18.58-14.34,3.46-1.3,7.15-2.01,10.53-3.54,2.96-2.08,5.58-4.6,8.41-6.85,1.41-1.09,2.63-2.41,3.43-4.02,2.92-5.23,5.86-10.52,10.07-14.85-2.63-5.49-4.24-11.51-4.24-17.63,1.38.46,2.78.9,4.18,1.32.25-9.46,6.67-16.99,13.13-23.21.13-5.65,1.72-11.23,4.63-16.08-1.81-3.16-3.49-6.46-4.12-10.09,5.57-.57,11.18-1.5,16.34-3.73,3.03-1.26,4.91-4.09,7.01-6.45,3.87-4.23,8.12-8.29,13.37-10.75,6.58-3.05,13.9-4.58,21.16-4.27-2.33-1.75-4.87-3.24-7.58-4.33,6.15-3.76,13.25-5.71,20.37-6.48.24-3.52.49-7.09,1.58-10.47h0Z" style="fill:#010101;"/><path d="M243.83,7.67c6.4,3.75,12.15,8.68,19.03,11.62,6.1,2.53,12.39,4.55,18.67,6.62,4.81,1.28,9.35,4.65,10.53,9.7,4.15,1.95,9.04,3.18,11.8,7.14,2.01,2.2,1.73,6.14,4.82,7.36,5.12,2.28,10.24,4.61,14.89,7.77,3.89,2.9,7.53,6.12,10.99,9.53-2.5,2.24-5.38,4.16-7.33,6.94-1.96,4.91-3.71,10.31-7.98,13.75-1.41,1.24-3.46,1.84-4.34,3.62,3.97.1,7.79,1.15,11.49,2.54,2.51-1.54,4.68-3.88,7.74-4.32,3.3-.77,6.54,1.01,8.67,3.44,6.3-.59,13.41.68,17.43,6.06,2.49,2.77,2.05,7-.1,9.83.02,2.08.49,4.4-.68,6.27-.9,1.65-2.63,2.51-4.13,3.49-1.4,2.87-3.12,5.97-6.26,7.19-3.6,1.46-7.53.23-10.99-1.04-3.51.6-7.1,1.31-10.67.77-2.58-.53-4.82-1.99-7-3.39-3.85,4.54-6.88,9.7-10.75,14.23,4.43,3.9,9.17,7.66,14.8,9.67,3.17,1.26,6.48,2.08,9.77,2.9,3.32.87,5.64,3.62,7.05,6.62,4.27-.9,9.18-1.44,12.9,1.35,3.47,2.59,7.18,5.85,7.79,10.4.66,3.51-1.2,6.91-4.09,8.82-.48,2.03-.89,4.21-2.35,5.81-1.54,1.76-3.94,2.28-6.18,2.34-1.95,2.6-5.21,4.34-8.5,3.75-2.96-.29-5.21-2.96-8.31-2.35-6.3.44-12.8-2.61-15.68-8.38-5.78-2.29-11.99-3.33-18.19-3.39-9.24-1.06-18.55-3.38-26.69-7.97-4.5,1.83-9.19,3.26-14.06,3.63-1.75-4.19-4.91-7.65-8.73-10.07-5.94,3.26-11.89,6.49-17.91,9.59-5.43,2.77-11.56,3.64-17.54,4.27.51,4.54-.9,9-2.36,13.24-.81,2.06-1.53,4.24-2.99,5.95-1.69,1.71-3.75,2.96-5.81,4.13-4.91,2.77-10.71,3.4-15.53,6.34-2.47,1.54-4.71,3.38-6.9,5.27,2.67.49,5.58,1.81,8.21.5,2.34-.95,4.63-2.24,7.21-2.38,6.9-.86,13.31,4.8,14.85,11.26.84,3.8-1.86,7.07-4.99,8.77-.87,2.05-1.81,4.32-3.91,5.39-3.43,1.79-7.4.83-11.07.78-2.85,1.12-5.92,2.58-9.04,1.66-3.3-.59-5.85-3.08-9.05-3.82-7.03.15-14.03,1.13-21.07,1.11-3.18-.09-6.28-1.71-8.01-4.42-2.38-3.21-1.14-7.58.62-10.78,1.63-3.09,4.64-5.3,6.03-8.5-.81-1.72-2.89-2.16-4.37-3.15-4.07,7.11-6.58,15.91-13.94,20.44-8.25,4.84-17.54,8.06-24.79,14.52-.02,3.08-.05,6.16.22,9.24,3.72.59,7.55,2.58,8.7,6.43.91,4.17.41,9.8-4.06,11.72-.97,2.26-2.32,4.71-4.83,5.49-2.52,1-5.27-.42-7.77.65-2.82.92-5.97,1.21-8.78.09-4.07-1.72-7.04-6.03-6.81-10.5-.07-7.8.54-15.59.7-23.38-.5-3.87-4.02-7.16-2.98-11.29,1.99-6.06,9.27-8.09,11.4-14.05,4.25-10.93,2.33-22.87,4.23-34.22-6.46-1.65-12.83-3.94-18.52-7.47-5.72-3.49-9.85-9.07-12.78-14.99-4.09-8.53-4.16-18.4-8.5-26.82-2.14-4.21-5.72-7.55-9.83-9.8-5.13,1.7-11.13.75-15.18-2.92-3.48-2.79-5.61-6.88-9.01-9.74-4.21-2.65-9.32-3.22-14.15-3.95,9.58-6.47,20.61-12.84,32.63-11.19,6.67.81,11.05,7.16,11.95,13.43,5.2,2.48,10.25,5.45,14.36,9.53,5.24,5.42,8.74,12.38,10.51,19.67,1.75,6.81,4.65,13.72,10.01,18.47,4.89,3.78,10.89,5.97,16.97,6.84,3.81-4.1,7.81-8.03,12.02-11.71,5.14-4.4,12.27-4.62,18.15-7.48,3.45-2.82,6.74-5.83,10.22-8.61,2.21-1.66,3.2-4.34,4.65-6.61,2.96-5.39,6.55-10.4,10.38-15.21-2.37-3.09-3.81-6.81-4.03-10.71,1.27.11,2.54.23,3.82.33-1.29-3.48-1.51-7.43.05-10.87,2.67-6.11,7.15-11.25,12.07-15.66-.12-6.47,1.59-13.02,5.54-18.22-1.54-2.13-2.84-4.44-3.66-6.95,5.06-.81,10.38-1.41,14.76-4.28,3.05-1.63,4.76-4.72,7.14-7.09,4.06-4.18,8.79-7.98,14.42-9.74,5.94-1.87,12.22-2.44,18.41-2.05,2.16-1.41,4.42-2.66,6.7-3.86-2.11-2.14-4.42-4.1-7.02-5.61,4.7-1.2,9.52-1.95,14.37-1.72.09-2.56.71-5.09.51-7.64h0Z" style="fill:#fff;"/><path d="M248.13,16.03c3.77,2.74,7.55,5.53,11.77,7.55,7.34,3.84,15.67,5.1,23.2,8.48,2.81,1.08,4.12,4.1,3.95,6.96,3.66,1.72,7.55,3.02,10.99,5.17,3.43,2.38,3.15,7.53,6.7,9.77,3.89,1.94,8,3.46,11.79,5.62,4.07,2.14,7.69,5.04,11.14,8.06-2.39,1.62-5.23,3.21-5.85,6.31-1.5,5.36-4.68,10.64-10.12,12.71,1.14-2.63,1.47-5.5.79-8.3-5.54-.13-11.16.81-16.08,3.45.02,3-.27,6.41,1.77,8.89,1.16,1.49,3.36,1.84,5.02,1.02,2.61-1.18,4.34-3.57,5.9-5.87.06,2.29-.66,4.94.96,6.88.66,1.77.11,3.73.1,5.58,4.97-2.42,10.55-.91,15.29,1.29,4.54.84,6.99-5.79,11.67-4.33,1.23.75,1.75,2.26,2.93,3.06,4.08.93,8.55-.77,12.35,1.42,2.03,1.07,4.97,2.74,4.34,5.46-.77.92-1.71,1.68-2.59,2.48.5,1.66,1.3,3.36.96,5.14-.77,1.4-2.52,1.62-3.84,2.25-.92,2.24-1.68,4.77-3.76,6.22-3.14.68-6.26-.53-9.22-1.45-4.71,1.21-10.56,2.45-14.51-1.23-2.23-2.55-6.19-.85-8.04,1.35-4.25,5.1-7.36,11.12-12.08,15.85-7.13,7.18-14.81,13.85-23.08,19.71-5.85,4.36-12.58,7.51-19.76,8.9-2.75-4.29-6.52-8.23-11.47-9.89-13.21-4.57-27.48-4.07-41.14-2.14,11.53.22,23.73,0,34.26,5.42-5.07,2.88-10.2,5.7-15.52,8.07-6.16,2.7-13,2.78-19.58,3.36.8,3.38,1.99,6.9.93,10.37-1.02,3.84-1.82,8.17-4.84,11-6.37,4.63-14.79,5.08-21.19,9.66-4.43,3.02-8.29,7.02-10.52,11.95,4.42.94,8.83,1.94,13.28,2.67,4.9,1.1,8.71-4.03,13.59-2.78,3.39.99,6.27,4.05,6.79,7.58-.29,2.32-2.92,2.75-4.7,3.48-.26,1.5-.6,2.98-1,4.44-3.4,1.19-6.99.56-10.41-.14-1.68,1.25-3.57,2.45-5.75,2.38-3.97.06-6.53-3.94-10.43-4.14-7.29-.23-14.54,1.44-21.83.98-1.81-.11-3.95-1.19-4.04-3.21-.16-3.47,2.68-5.92,4.55-8.49,1.84-2.45,4.66-5.23,3.51-8.58-1.41-3.24-4.95-4.56-7.89-6.05,5.45-6.27,11.83-11.77,19.07-15.86,9.32-5.58,18.95-10.82,29.3-14.23-15.86,2.69-30.85,9.91-43.26,20.1,3.01-5.87,8.15-10.2,12.77-14.76-9.9,4.98-17.64,13.63-22.47,23.51-2.87,6.06-5.92,12.04-9.32,17.81-1.93,3.45-5.75,5.06-9.12,6.75-6.37,2.92-12.49,6.37-18.25,10.35-1.93,1.46-4.42,3.07-4.45,5.79-.32,4.7.17,9.44.77,14.11,2.48.38,5.12.54,7.34,1.82,1.54,1.6,1.68,4.18.93,6.18-.81,1.08-2.38.93-3.55,1.34-.35,1.63-.24,3.69-1.82,4.72-1.9.55-3.84-.09-5.72-.45-1.47.93-3.03,1.97-4.86,1.81-3.35.29-6.35-2.8-6.11-6.12.11-8.28.96-16.54.62-24.82-.06-3.24-3.26-5.61-2.88-8.88,1.68-2.82,4.6-4.55,6.84-6.88,2.94-2.72,4.45-6.56,5.58-10.31,3.39-11.67.93-24.15,4.26-35.83-6.39-1.27-12.68-3.18-18.56-6.01-5.9-2.79-10.64-7.69-13.81-13.33-2.84-5.08-3.22-10.99-4.87-16.47-1.32-4.58-2.99-9.09-5.15-13.34-2.75-5.54-8.28-8.86-13.42-11.9-2.69,1.37-5.89,2.11-8.79.93-4.18-1.72-7.82-4.7-10.25-8.52-1.61-2.83-4.85-3.83-7.77-4.71,4.29-1.47,8.92-2.47,13.42-1.49,2.5.5,4.7,1.84,6.97,2.9-2.37-4.13-7.31-4.65-11.53-5.4,4.79-1.88,10.67-2.15,15.01.96,3.02,2.45,3.9,6.46,4.85,10.04,4.93,2.74,10.01,5.36,14.3,9.06,5.5,5.24,8.7,12.46,10.35,19.78,1.9,7.94,6.06,15.5,12.58,20.55,6.03,4.61,13.7,6.56,21.17,7.1,3.61-4.54,7.89-8.49,12.26-12.29,5.24-4.84,13.14-4.31,18.91-8.16,4.15-3.63,8.68-6.86,12.5-10.84,3.57-5.27,6.33-11.08,10.14-16.21,2.7-3.61,5.7-7,8.73-10.34-2.84-.27-5.71-.94-7.92-2.87,2.94-1.89,7.02-3.63,7.66-7.47.08-3.29-4.02-2.12-5.99-1.5,2.24-9.46,9.62-16.44,16.91-22.32,2.8-2.08,6.25-4.63,6.08-8.52-1.75-3.52-6.16-1.26-8.19.79,1.62-4.12,3.68-8.17,7.07-11.13-1.78-.81-3.34-1.99-4.5-3.57,3.26-.27,6.67-.48,9.56-2.21,5.18-2.94,10.29-6.06,15.87-8.22-2.43-.25-4.87-.07-7.25.56,4.82-4.98,10.88-9.08,17.84-10.17,8.33-1.67,16.83.96,25.13-.65-2.08-1.63-4.6-2.39-7.18-2.74,3.05-1.53,6.19-2.93,9.55-3.66-2.26-1.97-4.72-3.69-7.35-5.11,4.17.31,8.37.53,12.41,1.72-.93-1.78-1.49-3.7-1.73-5.68h0Z" style="fill:#006db0;"/><path d="M284.59,54.92c3.05-.41,6.3-1.98,9.29-.51,1.57.61,3.15,1.2,4.74,1.71-.97,1.44-1.86,2.93-2.53,4.52-3.21-3.01-7.1-5.16-11.5-5.73h0Z" style="fill:#fff;"/><path d="M209.89,77.95c5.52-4.02,11.95-7,18.85-7.41,11.98-.71,23.97,5.35,30.91,15.08-8.52-6.23-18.63-11.29-29.42-11.06-6.93-.13-13.73,1.47-20.34,3.39h0Z" style="fill:#fff;"/><path d="M201.55,96.85c8.29-3.58,15.69-9.53,24.82-10.89,6.74-1.19,13.6-.11,20.14,1.66-8.35-.56-16.89.45-24.47,4.16-7.03,3.34-13.08,8.58-20.57,10.98-7.75,2.93-16.43,2.87-24.23.14,8.41-.39,16.75-2.33,24.32-6.06h0Z" style="fill:#fff;"/><path d="M226.88,102.17c10.13-4.63,21.92-6.37,32.7-2.99,3.97,1.32,8.25,3.12,10.45,6.91,1.2,1.87,1.36,4.13,1.54,6.28,3.19-.82,6.32-1.87,9.28-3.32.48-2.66,1.03-5.41,2.68-7.61,1.34-1.96,3.8-3.25,6.19-2.84,4.3.53,8.3,2.37,12.18,4.21-10.58,7.83-22.97,12.85-35.51,16.63,1.39-3.66,1.63-7.98-.73-11.31-3.5-5.25-10.14-6.86-16.01-7.74-7.64-1.17-15.33.07-22.78,1.78h0Z" style="fill:#fff;"/><path d="M276.86,163.26c10.81-6.13,20.54-13.97,29.16-22.9,3.42,3.05,6.96,6.05,10.98,8.28,4.88,2.57,10.17,4.27,15.51,5.58,3.72.81,3.9,6,7.65,6.8,3.41.53,7-1.68,10.26.04,2.33,1.32,4.26,3.34,5.64,5.63.57,1.17,1.36,2.67.56,3.93-.7,1.51-2.54,1.72-3.9,2.35-.16,2.04.23,4.44-1.28,6.08-1.62.98-3.57.12-5.29-.06-.7,1.57-1.2,3.78-3.18,4.18-2.34.59-4.36-1.08-6.16-2.3-4.02.21-8.43.53-11.98-1.74-2.05-1.21-3.28-3.33-4.24-5.44-5.26-2.23-10.81-3.84-16.54-4.19-9.3-.79-18.7-2.27-27.22-6.25h0Z" style="fill:#006db0;"/></svg>