<svg width="62" height="61" viewBox="0 0 62 61" fill="none" xmlns="http://www.w3.org/2000/svg">
<path d="M33.3826 16.3063C36.4211 16.3063 38.8843 13.8431 38.8843 10.8046C38.8843 7.76606 36.4211 5.30286 33.3826 5.30286C30.3441 5.30286 27.8809 7.76606 27.8809 10.8046C27.8809 13.8431 30.3441 16.3063 33.3826 16.3063Z" stroke="#00DDFF" stroke-width="2.83594"/>
<path d="M51.448 35.3732C54.4865 35.3732 56.9497 32.91 56.9497 29.8715C56.9497 26.833 54.4865 24.3698 51.448 24.3698C48.4095 24.3698 45.9463 26.833 45.9463 29.8715C45.9463 32.91 48.4095 35.3732 51.448 35.3732Z" stroke="#00DDFF" stroke-width="2.83594"/>
<path d="M33.3826 53.3061C36.4211 53.3061 38.8843 50.8428 38.8843 47.8043C38.8843 44.7658 36.4211 42.3026 33.3826 42.3026C30.3441 42.3026 27.8809 44.7658 27.8809 47.8043C27.8809 50.8428 30.3441 53.3061 33.3826 53.3061Z" stroke="#00DDFF" stroke-width="2.83594"/>
<path d="M15.0808 45.2331C18.1193 45.2331 20.5825 42.7698 20.5825 39.7313C20.5825 36.6928 18.1193 34.2296 15.0808 34.2296C12.0423 34.2296 9.5791 36.6928 9.5791 39.7313C9.5791 42.7698 12.0423 45.2331 15.0808 45.2331Z" stroke="#00DDFF" stroke-width="2.83594"/>
<path d="M15.0808 23.7178C18.1193 23.7178 20.5825 21.2546 20.5825 18.2161C20.5825 15.1776 18.1193 12.7144 15.0808 12.7144C12.0423 12.7144 9.5791 15.1776 9.5791 18.2161C9.5791 21.2546 12.0423 23.7178 15.0808 23.7178Z" stroke="#00DDFF" stroke-width="2.83594"/>
<path d="M33.3741 32.112C35.8279 32.112 37.8171 30.1228 37.8171 27.669C37.8171 25.2153 35.8279 23.2261 33.3741 23.2261C30.9203 23.2261 28.9312 25.2153 28.9312 27.669C28.9312 30.1228 30.9203 32.112 33.3741 32.112Z" stroke="#00DDFF" stroke-width="2.83594"/>
<path d="M19.8179 15.4084L28.0704 12.2227" stroke="#00DDFF" stroke-width="2.83594"/>
<path d="M37.2402 14.7372L47.5252 26.0148" stroke="#00DDFF" stroke-width="2.83594"/>
<path d="M48.0822 34.2202L37.3057 43.9475" stroke="#00DDFF" stroke-width="2.83594"/>
<path d="M18.1064 22.8102L29.9701 43.4936" stroke="#00DDFF" stroke-width="2.83594"/>
<path d="M19.9502 42.2931L27.8814 45.9704" stroke="#00DDFF" stroke-width="2.83594"/>
<path d="M17.1426 34.6267L30.4053 15.4274" stroke="#00DDFF" stroke-width="2.83594"/>
<path d="M20.1494 20.3712L29.4324 25.6177" stroke="#00DDFF" stroke-width="2.83594"/>
<path d="M37.8262 28.1699L45.9464 28.7844" stroke="#00DDFF" stroke-width="2.83594"/>
<path d="M33.374 32.1216L33.3835 42.2931" stroke="#00DDFF" stroke-width="2.83594"/>
</svg>
