<svg width="62" height="61" viewBox="0 0 62 61" fill="none" xmlns="http://www.w3.org/2000/svg">
<path d="M56.2082 55.4584H5.7915" stroke="white" stroke-width="3.78125" stroke-linecap="round"/>
<path d="M53.6875 55.4584V36.5521C53.6875 34.4639 51.9945 32.7709 49.9062 32.7709H42.3437C40.2555 32.7709 38.5625 34.4639 38.5625 36.5521V55.4584" stroke="white" stroke-width="3.78125"/>
<path d="M38.5625 55.4583V22.6875M23.4375 55.4583V12.6041C23.4375 9.03914 23.4375 7.25663 24.545 6.14913C25.6525 5.04163 27.435 5.04163 31 5.04163C34.565 5.04163 36.3474 5.04163 37.4551 6.14913C38.5625 7.25663 38.5625 9.03914 38.5625 12.6041" stroke="white" stroke-width="3.78125" stroke-linecap="round" stroke-linejoin="round"/>
<path d="M23.4375 55.4583V23.9479C23.4375 21.8595 21.7446 20.1666 19.6562 20.1666H12.0937C10.0054 20.1666 8.3125 21.8595 8.3125 23.9479V40.3333M8.3125 55.4583V49.7864" stroke="white" stroke-width="3.78125" stroke-linecap="round"/>
</svg>
