<svg width="62" height="61" viewBox="0 0 62 61" fill="none" xmlns="http://www.w3.org/2000/svg">
<path d="M10.8335 52.9375C10.8335 44.0478 17.4071 36.6935 25.9585 35.4704M50.8457 38.3262C50.6738 38.3366 50.5006 38.3419 50.3266 38.3419C47.744 38.3419 45.3883 37.1883 43.6043 35.2917C41.8203 37.1883 39.4646 38.3416 36.882 38.3416C36.7081 38.3416 36.5349 38.3363 36.363 38.326C36.1533 39.2879 36.0418 40.2968 36.0418 41.3364C36.0418 46.918 39.2554 51.6078 43.6043 52.9375C47.9533 51.6078 51.1668 46.918 51.1668 41.3364C51.1668 40.2968 51.0554 39.2879 50.8457 38.3262ZM38.5627 17.6458C38.5627 23.2147 34.0481 27.7292 28.4793 27.7292C22.9105 27.7292 18.396 23.2147 18.396 17.6458C18.396 12.077 22.9105 7.5625 28.4793 7.5625C34.0481 7.5625 38.5627 12.077 38.5627 17.6458Z" stroke="white" stroke-width="5.04167" stroke-linecap="round" stroke-linejoin="round"/>
</svg>
