<svg width="62" height="61" viewBox="0 0 62 61" fill="none" xmlns="http://www.w3.org/2000/svg">
<path d="M31 35.2917V42.8542M31 35.2917C24.9022 35.2917 19.8158 30.9614 18.648 25.2083M31 35.2917C37.0979 35.2917 42.1842 30.9614 43.3521 25.2083M31 42.8542C33.3444 42.8542 34.5166 42.8542 35.4783 43.1118C38.0878 43.8111 40.1264 45.8497 40.8257 48.4592C41.0833 49.4209 41.0833 50.5931 41.0833 52.9375H20.9167C20.9167 50.5931 20.9167 49.4209 21.1743 48.4592C21.8736 45.8497 23.9121 43.8111 26.5217 43.1118C27.4834 42.8542 28.6556 42.8542 31 42.8542ZM18.648 25.2083H18.3958H17.7656C16.0087 25.2083 15.1302 25.2083 14.3996 25.063C11.3997 24.4663 9.05453 22.1212 8.4578 19.1212C8.3125 18.3907 8.3125 17.5122 8.3125 15.7552C8.3125 15.1695 8.3125 14.8767 8.36093 14.6332C8.55984 13.6332 9.34155 12.8515 10.3415 12.6526C10.5851 12.6042 10.8779 12.6042 11.4635 12.6042H18.3958M18.648 25.2083C18.4826 24.3938 18.3958 23.5508 18.3958 22.6875V11.5238C18.3958 10.1799 18.3958 9.50798 18.6455 8.98959C18.8932 8.47507 19.3084 8.05991 19.8229 7.81214C20.3413 7.5625 21.0132 7.5625 22.3571 7.5625H39.6429C40.9868 7.5625 41.6586 7.5625 42.1771 7.81214C42.6916 8.05991 43.1068 8.47507 43.3546 8.98959C43.6042 9.50798 43.6042 10.1799 43.6042 11.5238V22.6875C43.6042 23.5508 43.5174 24.3938 43.3521 25.2083M43.3521 25.2083H43.6042H44.2344C45.9914 25.2083 46.8699 25.2083 47.6004 25.063C50.6002 24.4663 52.9454 22.1212 53.5423 19.1212C53.6875 18.3907 53.6875 17.5122 53.6875 15.7552C53.6875 15.1695 53.6875 14.8767 53.6391 14.6332C53.4402 13.6332 52.6585 12.8515 51.6585 12.6526C51.415 12.6042 51.122 12.6042 50.5365 12.6042H43.6042" stroke="white" stroke-width="5.04167" stroke-linecap="round" stroke-linejoin="round"/>
</svg>
