<svg width="21" height="22" viewBox="0 0 21 22" fill="none" xmlns="http://www.w3.org/2000/svg">
<path d="M0.916016 9.83753V19.6087C0.916016 20.1785 1.37799 20.6404 1.94786 20.6404H7.10711V9.83753C7.10711 9.26766 6.64513 8.80566 6.07526 8.80566H1.94786C1.37799 8.80566 0.916016 9.26766 0.916016 9.83753Z" stroke="#00C2E0" stroke-width="1.83204" stroke-linecap="round"/>
<path d="M18.4576 11.6768H14.3301C13.7602 11.6768 13.2983 12.1386 13.2983 12.7085V20.6439H18.4576C19.0275 20.6439 19.4893 20.182 19.4893 19.6121V12.7085C19.4893 12.1386 19.0275 11.6768 18.4576 11.6768Z" stroke="#00C2E0" stroke-width="1.83204" stroke-linecap="round"/>
<path d="M7.10742 1.94786V8.80584V20.6406H13.2985V1.94786C13.2985 1.37798 12.8365 0.916016 12.2667 0.916016H8.1393C7.5694 0.916016 7.10742 1.37798 7.10742 1.94786Z" stroke="#00C2E0" stroke-width="1.83204" stroke-linecap="round"/>
</svg>
