<svg width="62" height="72" viewBox="0 0 62 72" fill="none" xmlns="http://www.w3.org/2000/svg">
<path d="M21.656 69.8971C22.0549 70.8608 22.9853 71.4418 23.9662 71.4418C24.2848 71.4418 24.6088 71.3806 24.9209 71.2512L60.1326 56.6806C61.4075 56.1532 62.0141 54.692 61.4854 53.4163L40.0209 1.54412C39.6215 0.582346 38.6922 0 37.7101 0C37.3911 0 37.0677 0.0612744 36.756 0.190985L1.54434 14.7619C0.268718 15.289 -0.337819 16.7508 0.19121 18.0265L21.656 69.8971ZM37.0353 4.13165L57.5442 53.6939L24.6408 67.3102L4.13187 17.7484L37.0353 4.13165Z" fill="#00C2E0"/>
<path d="M36.8104 43.0906L25.859 14.2734L19.2041 17.0274L31.8195 45.1577L36.8104 43.0906Z" fill="#00C2E0"/>
<path d="M33.4108 49.9218C33.0057 50.9716 33.0409 52.1758 33.5123 53.3142C34.231 55.053 35.7497 56.134 37.473 56.134C38.0331 56.134 38.5955 56.019 39.1448 55.7923C41.4248 54.8475 42.3656 52.4354 41.3809 50.0578C40.4026 47.6883 38.0401 46.634 35.744 47.5807C34.648 48.0321 33.8209 48.8671 33.4108 49.9218Z" fill="#00C2E0"/>
</svg>
