<svg width="41" height="41" viewBox="0 0 41 41" fill="none" xmlns="http://www.w3.org/2000/svg">
<path fill-rule="evenodd" clip-rule="evenodd" d="M27.2795 25.4946C27.772 25.9859 27.772 26.7921 27.2795 27.2833C26.7882 27.7746 25.9897 27.7746 25.4971 27.2833L20.1614 21.9426L14.7879 27.321C14.2916 27.8122 13.488 27.8122 12.9917 27.321C12.4967 26.8171 12.4967 26.0111 12.9917 25.5198L18.3652 20.1412L13.0295 14.8131C12.5369 14.3218 12.5369 13.5156 13.0295 13.0244C13.5194 12.5331 14.318 12.5331 14.8106 13.0244L20.1463 18.3651L25.5601 12.9489C26.0564 12.4576 26.8588 12.4576 27.355 12.9489C27.8501 13.4527 27.8501 14.2462 27.355 14.75L21.9425 20.1665L27.2795 25.4946ZM20.1538 0C9.02262 0 0 9.01885 0 20.1538C0 31.2888 9.02262 40.3077 20.1538 40.3077C31.2851 40.3077 40.3077 31.2888 40.3077 20.1538C40.3077 9.01885 31.2851 0 20.1538 0Z" fill="#00C2E0"/>
</svg>
