<svg width="62" height="62" viewBox="0 0 62 62" fill="none" xmlns="http://www.w3.org/2000/svg">
<path fill-rule="evenodd" clip-rule="evenodd" d="M15.309 0H45.927V7.6545H61.236V15.309C61.236 24.7103 54.4564 32.5281 45.5198 34.1405C44.2189 39.6645 39.9259 44.034 34.4453 45.4448V53.5815H45.927V61.236H15.309V53.5815H26.7908V45.4448C21.31 44.034 17.017 39.6645 15.7162 34.1405C6.77944 32.5281 0 24.7103 0 15.309V7.6545H15.309V0ZM45.927 26.1374V15.309H53.5815C53.5815 20.3082 50.3865 24.5612 45.927 26.1374ZM15.309 15.309H7.6545C7.6545 20.3082 10.8495 24.5612 15.309 26.1374V15.309Z" fill="#00C2E0"/>
</svg>
