<svg width="28" height="28" viewBox="0 0 28 28" fill="none" xmlns="http://www.w3.org/2000/svg">
<g clip-path="url(#clip0_334_1693)">
<path fill-rule="evenodd" clip-rule="evenodd" d="M26.8477 12.8825L21.8341 7.85452C21.5032 7.5244 20.9648 7.5244 20.633 7.85452C20.3012 8.19311 20.3147 8.76021 20.3147 9.31041V11.8498H6.77133V9.31041C6.77133 8.76021 6.78487 8.19311 6.45306 7.85452C6.12125 7.5244 5.58374 7.5244 5.25192 7.85452L0.238356 12.8825C0.0614454 13.0602 -0.0147591 13.2972 -0.0020622 13.5258C-0.0147591 13.7628 0.0614454 13.9998 0.238356 14.1776L5.25192 19.2055C5.58374 19.5356 6.12125 19.5356 6.45306 19.2055C6.78487 18.8669 6.77133 18.1051 6.77133 17.775V15.2356H20.3147V17.775C20.3147 18.3252 20.3012 18.8669 20.633 19.2055C20.9648 19.5356 21.5032 19.5356 21.8341 19.2055L26.8477 14.1776C27.0246 13.9998 27.1008 13.7628 27.0881 13.5258C27.1008 13.2972 27.0246 13.0602 26.8477 12.8825Z" fill="#00C2E0"/>
</g>
<defs>
<clipPath id="clip0_334_1693">
<rect width="27.0868" height="27.0868" fill="white"/>
</clipPath>
</defs>
</svg>
