<svg width="15" height="22" viewBox="0 0 15 22" fill="none" xmlns="http://www.w3.org/2000/svg">
<path d="M0.755769 0C1.17317 0 1.51154 0.338373 1.51154 0.755769V2.62L3.24544 2.27322C4.90867 1.94057 6.63273 2.09886 8.20755 2.7288L8.41282 2.81089C9.98593 3.44015 11.7174 3.55767 13.3612 3.14672C14.1243 2.95595 14.8635 3.5331 14.8635 4.31966V11.7433C14.8635 12.3926 14.4216 12.9585 13.7917 13.116L13.5756 13.17C11.7924 13.6158 9.91418 13.4884 8.20755 12.8058C6.63273 12.1757 4.90867 12.0175 3.24544 12.3502L1.51154 12.6969V20.9096C1.51154 21.327 1.17317 21.6654 0.755769 21.6654C0.338373 21.6654 0 21.327 0 20.9096V0.755769C0 0.338373 0.338373 0 0.755769 0Z" fill="#00C2E0"/>
</svg>
