<svg width="50" height="69" viewBox="0 0 50 69" fill="none" xmlns="http://www.w3.org/2000/svg">
<path d="M45.7818 25.4146C43.8789 20.3658 41.1056 15.6898 37.5876 11.599C31.4996 4.55147 22.105 0 14.7366 0C17.6533 10.7455 12.5323 17.9787 7.86108 25.1398C3.99117 31.0636 0 37.1901 0 44.2099C0 57.7523 11.0187 68.771 24.5611 68.771C38.1034 68.771 49.1221 57.7523 49.1221 44.2099C49.1221 37.5631 47.9985 31.2401 45.7818 25.4146ZM29.5239 59.3595C27.9382 61.0481 25.9503 61.4027 24.5611 61.4027C23.1718 61.4027 21.1839 61.0481 19.5982 59.3595C18.0125 57.6709 17.1927 54.9922 17.1927 51.5782C17.1927 47.7191 18.5467 44.781 19.8546 41.9411C20.8493 39.7813 22.105 37.7626 22.174 35.1116C23.9087 36.0142 25.8075 37.7074 27.4762 39.9133C30.2654 43.5974 31.9279 47.9601 31.9279 51.5798C31.9294 54.9922 31.0974 57.6832 29.5239 59.3595Z" fill="#00C2E0"/>
</svg>
