<svg width="18" height="24" viewBox="0 0 18 24" fill="none" xmlns="http://www.w3.org/2000/svg">
<path d="M8.77767 6.73194C8.07215 6.73194 7.4091 7.03229 6.90887 7.5812C6.66306 7.85017 6.46813 8.16981 6.33531 8.52174C6.20249 8.87367 6.13439 9.25094 6.13493 9.63186C6.13493 10.406 6.411 11.1336 6.90887 11.6825C7.15398 11.9522 7.44527 12.1661 7.76599 12.3119C8.08671 12.4576 8.43053 12.5324 8.77767 12.5318C9.48318 12.5318 10.1462 12.2288 10.6465 11.6825C11.1467 11.1336 11.4204 10.406 11.4204 9.63186C11.4204 8.85768 11.1467 8.13012 10.6465 7.5812C10.1462 7.03229 9.48318 6.73194 8.77767 6.73194ZM16.8616 5.75063C16.4174 4.62661 15.7769 3.60889 14.9763 2.75492C14.1731 1.89323 13.2262 1.20931 12.1873 0.740514C11.1066 0.248564 9.95982 0 8.77767 0C7.59551 0 6.44875 0.248564 5.36806 0.737925C4.32276 1.21175 3.38601 1.89012 2.57903 2.75233C1.77895 3.60678 1.13854 4.62438 0.693719 5.74804C0.233599 6.91319 0 8.15083 0 9.42472C0 11.2527 0.39877 13.0729 1.18215 14.8284C1.81216 16.2395 2.69229 17.6144 3.8013 18.9219C5.69604 21.1538 7.68282 22.5184 8.24676 22.8834C8.40683 22.9872 8.5894 23.0417 8.7753 23.0414C8.95935 23.0414 9.14104 22.9896 9.30385 22.8834C9.86779 22.5184 11.8546 21.1538 13.7493 18.9219C14.8583 17.617 15.7384 16.2395 16.3685 14.8284C17.1566 13.0755 17.5553 11.2579 17.5553 9.42731C17.5553 8.15342 17.3217 6.91578 16.8616 5.75063ZM8.77767 14.1889C6.48415 14.1889 4.62479 12.1486 4.62479 9.63186C4.62479 7.11515 6.48415 5.07485 8.77767 5.07485C11.0712 5.07485 12.9305 7.11515 12.9305 9.63186C12.9305 12.1486 11.0712 14.1889 8.77767 14.1889Z" fill="#00C2E0"/>
</svg>
