<svg width="21" height="23" viewBox="0 0 21 23" fill="none" xmlns="http://www.w3.org/2000/svg">
<path d="M0 0L16.5327 18.898C17.0484 19.4099 18.6809 18.0903 18.2103 17.5508L2.80253 0H0ZM11.236 3.54498C11.0693 3.54413 10.9015 3.56577 10.7312 3.60606C10.5175 3.65759 10.4291 3.76723 10.3971 3.98357C10.2461 5.01472 10.0923 6.04323 9.93662 7.07254L11.3288 8.67113C11.4005 8.18763 11.4724 7.70403 11.5423 7.22548C11.7043 6.14086 11.8654 5.05515 12.0304 3.97251C12.0532 3.8215 12.0396 3.73208 11.8766 3.66765C11.6627 3.58428 11.4502 3.54607 11.236 3.54498ZM14.9151 4.14355C14.847 4.1411 14.7475 4.19173 14.7151 4.25054C14.054 5.38684 13.3986 6.52834 12.7449 7.66931C12.4651 8.15532 12.1813 8.63802 11.8942 9.13323L16.122 13.9921C17.5935 13.2657 19.0658 12.5391 20.5325 11.8062C20.607 11.7686 20.6799 11.6506 20.6862 11.564C20.7192 11.1258 20.5822 10.7356 20.3079 10.3937C20.2156 10.2769 20.1311 10.2316 19.9729 10.3071C19.0779 10.7501 18.1755 11.1793 17.2739 11.612C16.6587 11.9086 16.044 12.2064 15.4298 12.5051C15.2663 12.2664 15.102 12.0282 14.937 11.7905C14.9887 11.7415 15.04 11.6921 15.0908 11.6422C16.4581 10.3552 17.8229 9.06507 19.1911 7.78083C19.3144 7.66832 19.3411 7.56974 19.2858 7.41882C19.1524 7.05605 18.9342 6.76961 18.6053 6.55427C18.422 6.43382 18.3088 6.44921 18.1496 6.60306C17.5474 7.17957 16.9307 7.74205 16.3191 8.30921C15.509 9.06234 14.6987 9.8165 13.8829 10.5642C13.8293 10.6175 13.6977 10.6653 13.6574 10.636C13.4492 10.4924 13.2566 10.3201 13.0607 10.158C13.5221 9.36998 13.9695 8.60391 14.4197 7.83794C14.9657 6.90315 15.5127 5.96977 16.0493 5.0287C16.0899 4.95879 16.1019 4.82228 16.0576 4.76163C15.7841 4.36953 15.3993 4.15196 14.915 4.1436L14.9151 4.14355ZM4.95171 8.60703C4.66593 8.60731 4.39017 8.73221 4.11724 8.98407C4.16896 9.04944 4.22418 9.11406 4.27576 9.18033C4.87962 9.95169 5.49293 10.7178 6.08682 11.4995C6.79569 12.436 7.45954 13.4111 8.20071 14.3225C8.72375 14.9625 9.32506 15.5572 10.2836 15.4476C10.3352 15.7308 10.3858 16.0141 10.4355 16.2976C9.28751 16.4596 8.48464 15.8823 7.7268 15.1339C7.67876 15.26 7.65122 15.3474 7.61249 15.432C7.24787 16.2341 6.91274 17.0506 6.51124 17.8324C6.0923 18.6476 4.2597 21.0791 3.13224 22.4841H11.4986C11.5384 21.8855 11.5815 21.2397 11.6407 20.744C11.7909 19.4557 12.0081 18.1803 12.5479 16.9862C12.7025 16.6419 12.9059 16.3381 13.1589 16.0813L8.65309 10.902C8.65016 10.9259 8.64836 10.9489 8.64647 10.9718C8.64298 11.0125 8.59593 11.0733 8.56088 11.0816C8.30779 11.1276 8.04342 11.2178 7.80412 11.1783C7.6643 11.1552 7.56468 10.9121 7.44763 10.7667C7.39331 10.7003 7.34466 10.6314 7.29128 10.565C6.8142 9.96935 6.36953 9.3431 5.73629 8.89559C5.46379 8.70358 5.20385 8.60684 4.95171 8.60703Z" fill="#00C2E0"/>
</svg>
