<svg width="23" height="18" viewBox="0 0 23 18" fill="none" xmlns="http://www.w3.org/2000/svg">
<path d="M2.04999 6.96178C1.45288 8.24928 1.11963 9.68401 1.11963 11.1966C1.11963 12.8408 1.51341 14.393 2.21182 15.7641C2.55099 16.4299 3.26504 16.7948 4.01227 16.7948H18.3808C19.1281 16.7948 19.8421 16.4299 20.1812 15.7641C20.8797 14.393 21.2735 12.8408 21.2735 11.1966C21.2735 5.63122 16.7619 1.11963 11.1966 1.11963C9.71513 1.11963 8.30835 1.4393 7.04147 2.01344M10.4048 10.405C10.8421 9.96773 11.551 9.96773 11.9883 10.405C12.4255 10.8422 12.4255 11.5511 11.9883 11.9884C11.551 12.4257 10.8421 12.4257 10.4048 11.9884C9.96762 11.5511 9.96762 10.8422 10.4048 10.405ZM10.4048 10.405L3.27937 3.27951" stroke="#00C2E0" stroke-width="2.23932" stroke-linecap="round" stroke-linejoin="round"/>
</svg>
