<svg width="17" height="24" viewBox="0 0 17 24" fill="none" xmlns="http://www.w3.org/2000/svg">
<path d="M6.84947 19.2158L2.03906 19.6633L2.19004 21.2926C2.20266 21.4318 2.22747 21.5668 2.2628 21.698C2.56224 22.8133 3.62963 23.5851 4.81773 23.4753C6.0075 23.3651 6.91423 22.4096 7.00129 21.2581C7.01433 21.1222 7.01223 20.9851 7.00003 20.8463L6.84947 19.2158Z" fill="#00C2E0"/>
<path d="M2.29693 18.5993L6.28261 18.2296C6.38775 18.1829 6.71327 18.1522 6.47565 17.5529C6.23677 16.954 5.86457 14.9307 6.14719 13.2972V13.2964C6.46555 12.1768 6.57995 10.5816 6.36925 8.30892C6.17579 6.2326 5.04531 3.0952 3.25581 3.26174C1.46758 3.42828 -0.118368 7.11032 0.0069599 9.30355C0.117148 10.4837 0.476729 12.1184 1.02683 13.4596C1.02683 13.4596 2.04207 16.7219 1.8587 17.7266C1.68795 18.6594 2.29651 18.6001 2.29693 18.5993Z" fill="#00C2E0"/>
<path d="M10.4473 17.7125C10.4393 17.8526 10.4435 17.9897 10.4607 18.1242C10.5915 19.272 11.5319 20.1934 12.7254 20.2603C13.9169 20.3259 14.9544 19.515 15.2131 18.3896C15.2434 18.2571 15.2627 18.1213 15.2711 17.9812L15.3615 16.3482L10.5389 16.0786L10.4473 17.7125Z" fill="#00C2E0"/>
<path d="M17.0089 5.92004C17.0535 3.72344 15.3334 0.102384 13.5397 0.00228995C11.7451 -0.0973836 10.7316 3.07913 10.6151 5.16134C10.4881 7.43996 10.6622 9.03053 11.0213 10.137L11.0209 10.1391C11.3641 11.76 11.0668 13.7964 10.8506 14.4041C10.6344 15.0118 10.962 15.0299 11.0689 15.0715L15.0655 15.2948C15.0655 15.2948 15.6757 15.3318 15.4705 14.4062C15.2505 13.4073 16.1446 10.1122 16.1446 10.1122C16.6434 8.75085 16.942 7.10308 17.0089 5.92004Z" fill="#00C2E0"/>
</svg>
