<svg width="25" height="25" viewBox="0 0 25 25" fill="none" xmlns="http://www.w3.org/2000/svg">
<path fill-rule="evenodd" clip-rule="evenodd" d="M17.3995 12.4282C17.3995 11.7422 17.9563 11.1854 18.6423 11.1854H19.7733C19.2463 8.06963 16.7868 5.6099 13.671 5.08294V6.2141C13.671 6.90014 13.1142 7.45692 12.4282 7.45692C11.7422 7.45692 11.1854 6.90014 11.1854 6.2141V5.08294C8.06963 5.6099 5.61009 8.06963 5.08313 11.1854H6.2141C6.90014 11.1854 7.45692 11.7422 7.45692 12.4282C7.45692 13.1142 6.90014 13.671 6.2141 13.671H5.08313C5.61009 16.7868 8.06963 19.2465 11.1854 19.7735V18.6423C11.1854 17.9563 11.7422 17.3995 12.4282 17.3995C13.1142 17.3995 13.671 17.9563 13.671 18.6423V19.7735C16.7868 19.2465 19.2463 16.7868 19.7733 13.671H18.6423C17.9563 13.671 17.3995 13.1142 17.3995 12.4282ZM24.8564 12.4282C24.8564 13.1142 24.2996 13.671 23.6136 13.671H22.285C21.7233 18.1663 18.1663 21.7234 13.671 22.2852V23.6136C13.671 24.2996 13.1142 24.8564 12.4282 24.8564C11.7422 24.8564 11.1854 24.2996 11.1854 23.6136V22.2852C6.6901 21.7234 3.13315 18.1663 2.5714 13.671H1.24282C0.556784 13.671 0 13.1142 0 12.4282C0 11.7422 0.556784 11.1854 1.24282 11.1854H2.5714C3.13315 6.6901 6.6901 3.13296 11.1854 2.57121V1.24282C11.1854 0.556784 11.7422 0 12.4282 0C13.1142 0 13.671 0.556784 13.671 1.24282V2.57121C18.1663 3.13296 21.7233 6.6901 22.285 11.1854H23.6136C24.2996 11.1854 24.8564 11.7422 24.8564 12.4282ZM16.1567 12.4282C16.1567 13.1142 15.5999 13.671 14.9138 13.671H13.671V14.9138C13.671 15.5999 13.1142 16.1567 12.4282 16.1567C11.7422 16.1567 11.1854 15.5999 11.1854 14.9138V13.671H9.94256C9.25653 13.671 8.69974 13.1142 8.69974 12.4282C8.69974 11.7422 9.25653 11.1854 9.94256 11.1854H11.1854V9.94256C11.1854 9.25653 11.7422 8.69974 12.4282 8.69974C13.1142 8.69974 13.671 9.25653 13.671 9.94256V11.1854H14.9138C15.5999 11.1854 16.1567 11.7422 16.1567 12.4282Z" fill="#00C2E0"/>
</svg>
