<svg width="13" height="27" viewBox="0 0 13 27" fill="none" xmlns="http://www.w3.org/2000/svg">
<path d="M12.315 9.05262C12.222 8.68318 12.0868 8.33217 11.942 7.98291C11.7867 7.61171 11.6296 7.23876 11.4339 6.88775C11.2146 6.4911 10.9495 6.13395 10.6547 5.78908C10.3914 5.4837 10.0764 5.21868 9.78242 4.94577C9.4823 4.66759 9.18657 4.38415 8.8847 4.10773C8.60477 3.84798 8.33625 3.58121 8.08966 3.28899C7.90538 3.02047 7.73865 2.74317 7.60175 2.44568C7.38939 1.8902 7.26039 1.30489 7.13227 0.727474C7.0568 0.386114 6.72071 0.166731 6.38549 0.166731C6.37233 0.166731 6.35917 0.171119 6.346 0.171996C6.31792 0.14918 6.29949 0.120222 6.26615 0.100916C6.15031 0.0333462 6.01517 0 5.87916 0C5.61151 0 5.34211 0.12812 5.21837 0.375584C4.85069 1.10394 4.57865 1.87002 4.3426 2.64927C4.23993 2.98975 4.13638 3.32936 4.03371 3.66808C3.98281 3.83482 3.93279 4.00242 3.89067 4.17091C3.83012 4.40346 3.80291 4.64127 3.77396 4.88083C3.69498 5.55039 3.65549 6.22872 3.62916 6.90179C3.62039 7.11503 3.61688 7.32915 3.61688 7.54239C3.56072 7.4757 3.50192 7.41164 3.44751 7.34407C3.31062 7.15803 3.18425 6.96497 3.05438 6.77367C2.91485 6.56657 2.77708 6.36211 2.66563 6.14009C2.63141 6.04181 2.60596 5.94177 2.58753 5.83998C2.5849 5.81453 2.58315 5.78908 2.58051 5.76363C2.56384 5.55917 2.50943 5.38366 2.36113 5.2336C2.3234 5.19587 2.27425 5.17481 2.23038 5.14585C2.22511 5.1362 2.22423 5.12303 2.21897 5.11338C2.11805 4.94138 1.9522 4.81326 1.76002 4.76061C1.69333 4.74218 1.62576 4.73253 1.55731 4.73253C1.42217 4.73253 1.28703 4.76851 1.16769 4.83783C0.985159 4.94402 0.885998 5.10285 0.816673 5.29503C0.684166 5.66535 0.559556 6.03654 0.437579 6.40949C0.38054 6.58149 0.325255 6.75173 0.276113 6.92724C0.212053 7.15978 0.175197 7.39233 0.144484 7.6319C0.0567306 8.34182 -0.0108395 9.05876 0.00144595 9.77395C0.0146089 10.54 0.204156 11.2824 0.421784 12.0108C0.536741 12.389 0.692063 12.7514 0.882488 13.0972C0.961466 13.242 1.04132 13.3876 1.13258 13.5236C1.27299 13.729 1.42919 13.9238 1.58627 14.1177C1.82759 14.4161 2.07856 14.7118 2.36727 14.9663C2.53927 15.119 2.72443 15.2568 2.91222 15.391C2.94908 15.506 3.00348 15.6139 3.09036 15.7008C3.09913 15.7096 3.11493 15.7148 3.12458 15.7245C3.1237 15.7271 3.12107 15.7289 3.12019 15.7315C3.08509 15.8684 3.08509 16.0036 3.12019 16.1396C3.23691 16.9759 3.38521 17.8042 3.53878 18.6361C3.68357 19.4075 3.81696 20.1815 3.94859 20.9555C4.07846 21.7093 4.17323 22.4683 4.29433 23.2248C4.34962 23.5688 4.4479 23.9031 4.54092 24.2383C4.58304 24.3849 4.62341 24.5332 4.66202 24.6823C4.72081 24.9131 4.7954 25.1211 4.89018 25.3405C4.94722 25.4704 5.05866 25.5932 5.1587 25.688C5.26839 25.7924 5.39827 25.8688 5.53516 25.9293C5.70716 26.0065 5.88267 26.0706 6.05993 26.132C6.34513 26.2286 6.65402 26.2619 6.95238 26.2952C7.18054 26.3207 7.41133 26.3321 7.64036 26.3207C7.82113 26.3119 7.99927 26.2882 8.17829 26.2619C8.24586 26.2514 8.30992 26.24 8.37398 26.2145C8.58634 26.1268 8.81099 25.9951 8.91893 25.7793C9.10409 25.4098 9.18043 25.0149 9.24976 24.6121C9.30241 24.3103 9.35067 24.0084 9.39631 23.7048C9.48757 23.1142 9.55426 22.5166 9.63061 21.9225C9.70081 21.4443 9.79119 20.9704 9.88246 20.4948C9.97898 20.0007 10.0378 19.4996 10.1238 19.0021C10.2186 18.4677 10.2975 17.9324 10.3686 17.3927C10.4397 16.8583 10.4748 16.3177 10.5073 15.7798C10.5134 15.685 10.4923 15.5955 10.459 15.5113C10.8969 15.0242 11.2619 14.4872 11.5647 13.9036C11.7604 13.5289 11.921 13.1358 12.0807 12.7462C12.2158 12.4171 12.3316 12.0678 12.3896 11.7168C12.4659 11.2649 12.5142 10.8138 12.4975 10.3558C12.4808 9.91699 12.422 9.47822 12.315 9.05262ZM8.67585 18.6695C8.5995 19.1232 8.54071 19.5786 8.46173 20.0323C8.38539 20.4676 8.29676 20.8993 8.22919 21.3363C8.15723 21.8014 8.10984 22.27 8.04929 22.7369C8.05368 22.707 8.05807 22.6763 8.06246 22.6456C8.04666 22.7597 8.03174 22.8729 8.01595 22.987C7.96944 23.302 7.91854 23.6153 7.86326 23.9277C7.81236 24.2137 7.76322 24.5156 7.67985 24.8008C7.42624 24.8166 7.17439 24.8043 6.92166 24.7789C6.69087 24.7394 6.46798 24.6788 6.24772 24.5963C6.23456 24.5893 6.22139 24.5823 6.20823 24.5753C6.12487 24.3226 6.0687 24.0619 5.99324 23.8074C5.89407 23.4731 5.79579 23.1414 5.73349 22.7983C5.67118 22.442 5.62555 22.0848 5.56851 21.7286C5.50796 21.346 5.4439 20.9642 5.37984 20.5834C5.12272 19.0696 4.84893 17.5568 4.64008 16.0369C4.64008 16.0369 4.64008 16.036 4.64008 16.0351V16.0325C4.63569 16 4.63218 15.9685 4.6278 15.936C4.62341 15.9061 4.61463 15.8825 4.60937 15.8535C4.79453 15.8403 4.97969 15.8219 5.16572 15.8114C5.66855 15.7824 6.17313 15.8131 6.6742 15.8386C7.12964 15.8623 7.58683 15.8789 8.04227 15.9079C8.36345 15.929 8.68112 15.9202 8.99878 15.8991C8.98299 16.1694 8.95315 16.4379 8.93034 16.7073C8.64338 16.731 8.35994 16.7758 8.07562 16.8188C7.8536 16.839 7.62896 16.8372 7.40606 16.8372C7.34376 16.8372 7.28145 16.8372 7.21915 16.8372C6.85848 16.8407 6.49694 16.8337 6.13627 16.8284C5.71945 16.8232 5.37019 17.1812 5.37019 17.5945C5.37019 18.0166 5.71945 18.3588 6.13627 18.3624C6.58996 18.3659 7.04189 18.3571 7.49469 18.3439C7.56226 18.3422 7.62983 18.3422 7.6974 18.3422C7.8106 18.3439 7.92556 18.3439 8.03788 18.3308C8.26692 18.3044 8.49508 18.2641 8.72236 18.2281C8.73026 18.2272 8.73816 18.2272 8.74693 18.2263C8.72148 18.3738 8.7013 18.5221 8.67585 18.6695ZM10.9741 11.1956C10.8943 11.6203 10.7661 12.0187 10.6047 12.4188C10.3265 13.0428 10.0053 13.6526 9.60252 14.2064C9.55426 14.2643 9.50336 14.3196 9.45334 14.3757C9.37436 14.3705 9.29627 14.374 9.21729 14.3942C8.82503 14.431 8.43541 14.4363 8.04139 14.417C7.58596 14.3968 7.12876 14.3784 6.67332 14.3494C6.19507 14.3169 5.71944 14.2985 5.24119 14.2985C5.22013 14.2985 5.19907 14.2985 5.17888 14.2985C4.78312 14.2985 4.38647 14.3283 3.99246 14.3617C3.84504 14.2555 3.69849 14.1484 3.55106 14.0414C3.16232 13.7202 2.83763 13.3455 2.52435 12.9524C2.30585 12.661 2.12332 12.3381 1.97238 12.0064C1.75651 11.4492 1.60031 10.8559 1.50641 10.2662C1.41866 9.46506 1.48711 8.6472 1.59153 7.84952C1.61084 7.71087 1.63366 7.5731 1.66876 7.43796C1.6749 7.41427 1.68543 7.39233 1.69157 7.36864C1.71263 7.39847 1.73106 7.43094 1.75124 7.46166C1.8662 7.62663 1.97589 7.79599 2.08997 7.95922C2.32954 8.30672 2.61123 8.62877 2.88589 8.94819C3.20619 9.31764 3.56247 9.63442 3.98369 9.88452C4.3075 10.0776 4.71818 9.98017 4.95248 9.69848C5.19205 9.52035 5.30788 9.20882 5.23329 8.90344C5.18942 8.72355 5.14466 8.54628 5.11307 8.36464C5.05428 7.77318 5.07972 7.16856 5.10517 6.5771C5.12974 6.01022 5.17011 5.44421 5.23768 4.88083C5.31929 4.3666 5.4869 3.87343 5.64134 3.37674C5.7484 3.03714 5.87126 2.70368 5.99324 2.37021C6.07309 2.6168 6.15207 2.86426 6.25562 3.10646C6.50396 3.68827 6.90148 4.23672 7.34376 4.6869C7.73338 5.08705 8.15372 5.46088 8.56353 5.84085C8.96807 6.2138 9.377 6.57974 9.73679 6.99832C9.89036 7.21156 10.0308 7.42919 10.1598 7.66085C10.2905 7.89779 10.3976 8.14964 10.5046 8.39974C10.6047 8.64018 10.7073 8.87975 10.7828 9.12897C10.8662 9.40363 10.932 9.67742 10.9785 9.95999C10.9969 10.1645 11.0154 10.3707 11.011 10.5769C11.0083 10.7849 10.9943 10.9893 10.9741 11.1956ZM9.77277 8.71302C9.90264 9.10791 9.94652 9.53439 9.95178 9.94946C9.95529 10.3917 9.90088 10.8252 9.81489 11.2587C9.77803 11.4439 9.73766 11.6299 9.69642 11.8151C9.63762 12.0784 9.54636 12.3232 9.36734 12.5303C9.09882 12.8427 8.57406 12.8049 8.30114 12.5303C8.04227 12.2714 8.00542 11.83 8.23094 11.5413C8.27131 11.4044 8.29588 11.2622 8.32659 11.1236C8.36959 10.9314 8.4003 10.7366 8.42839 10.5427C8.467 10.1996 8.46524 9.84679 8.43102 9.50192C8.40118 9.33957 8.35643 9.18162 8.29939 9.02805C8.16601 8.74461 8.00103 8.47257 7.83781 8.20668C7.62018 7.8504 7.75883 7.36513 8.11247 7.15715C8.23182 7.08695 8.36345 7.05448 8.4942 7.05448C8.76009 7.05448 9.02072 7.19138 9.16376 7.4327C9.29188 7.64857 9.39192 7.87497 9.506 8.09699C9.60867 8.29619 9.70168 8.4989 9.77277 8.71302Z" fill="#00C2E0"/>
</svg>
