<svg width="73" height="48" viewBox="0 0 73 48" fill="none" xmlns="http://www.w3.org/2000/svg">
<path d="M66.0174 17.4652C65.9645 17.4299 65.9116 17.3946 65.8645 17.3476L64.1888 15.8248C63.6655 15.4602 63.1069 15.1486 62.5072 14.8958C56.9509 12.5615 51.5416 15.3367 46.5262 18.1766C46.5027 18.1884 46.485 18.2001 46.4615 18.2119C46.1911 18.3648 45.9147 18.5235 45.6442 18.6764C44.874 19.1115 44.1155 19.5466 43.4688 19.8994L15.1698 35.4218C18.0626 34.0048 30.3806 25.4548 32.9441 25.6723C35.6488 25.9016 37.3043 29.5311 39.1976 32.665L39.9292 30.4407C40.7465 31.6461 39.014 34.5986 39.9489 35.4218C40.8897 36.2391 32.9441 25.6723 32.9441 25.6723C31.3972 24.0391 39.1976 24.4987 45.6442 16.4644C49.5131 17.8285 46.2886 17.3123 49.8752 15.666C53.4736 14.0197 54.2796 15.5452 55.967 11.7528C62.5072 13.066 72.3166 20.4145 71.0739 31.7302C67.8401 32.665 70.1273 26.2847 68.7926 22.3924C68.1635 20.5462 67.2345 18.8352 66.0174 17.4652ZM57.5448 6.41724C59.4909 4.08888 62.1133 3.27748 64.4534 3.57147C65.7058 3.73022 66.8817 4.21235 67.8401 4.94732C68.822 5.7058 69.5746 6.72886 69.945 7.95772C69.9568 7.993 69.9627 8.03416 69.9744 8.06944C70.5683 10.1861 70.0509 12.8437 67.6402 15.666C69.163 17.3182 70.3037 19.382 71.0739 21.6163C72.5791 25.9966 72.6379 31.0767 71.2621 34.9867C71.1033 35.4394 70.9152 35.9039 70.7094 36.3684C68.775 40.7076 65.2942 44.0649 61.1784 45.9523C57.0509 47.8456 52.2824 48.2513 47.8021 46.6696C47.3905 46.5226 46.9613 46.3521 46.5262 46.1581C45.2621 45.5937 44.0626 44.8352 42.9396 43.8533C41.8518 42.9008 40.8288 41.7424 39.8939 40.3607C39.8645 40.3254 39.841 40.2843 39.8175 40.2431C38.3769 37.856 36.6366 36.8094 34.6963 36.6389C32.6148 36.4625 30.2395 37.2327 27.7112 38.4675L14.7171 44.9645C14.2643 45.2232 13.6822 45.1703 13.2824 44.7881L0.364718 32.3173C0.13541 32.0939 -0.00570283 31.7822 0.000176864 31.4412L0.12953 23.0039C0.117771 22.6981 0.223605 22.3806 0.452913 22.1395C0.558748 22.022 0.688101 21.9338 0.817455 21.8691L24.4597 8.50453C24.5009 8.47513 24.5479 8.45161 24.5949 8.4281L32.4679 3.97717C32.5149 3.94777 32.5619 3.91837 32.6148 3.89485L33.2969 3.50679C33.3381 3.47739 33.3792 3.45387 33.4262 3.43036C35.5723 2.31321 37.7067 1.40186 39.8057 0.796252C41.9459 0.178884 44.0626 -0.109221 46.1264 0.0377712C51.083 0.396433 54.3403 3.32452 57.5448 6.41724ZM65.8645 14.0608C67.6343 11.9736 68.0576 10.1332 67.6755 8.7456C67.6637 8.7162 67.6578 8.6868 67.6461 8.66328C67.4227 7.92832 66.9699 7.31095 66.3761 6.85822C65.7587 6.38196 64.9826 6.06446 64.1535 5.9645C62.519 5.75871 60.6669 6.3702 59.2793 8.10471C59.5674 8.37518 59.8614 8.65152 60.1612 8.92787L65.6705 13.9374C65.7411 13.9668 65.7999 14.0138 65.8645 14.0608ZM27.0703 9.78043L37.5303 20.4227L42.3222 17.7945C42.8926 17.4828 43.41 17.1888 43.9156 16.9066L32.9441 6.4584L27.0703 9.78043ZM35.343 21.6221L24.9066 11.0034L3.34572 23.192L14.1526 33.2522L35.343 21.6221ZM35.1549 5.24718L46.097 15.666C50.3127 13.3082 54.7989 11.1328 59.632 11.6737L58.5502 10.6918C57.8446 10.0509 57.1214 9.35121 56.4041 8.65152C53.3408 5.68228 50.3186 2.75419 45.9618 2.43669C44.192 2.30733 42.3516 2.56604 40.4642 3.10697C38.7356 3.60675 36.9599 4.34759 35.1549 5.24718ZM12.7768 35.2513L2.48729 25.6674L2.40497 30.9473L12.8708 41.0545L12.7768 35.2513Z" fill="#00C2E0"/>
</svg>
