<svg version="1.2" baseProfile="tiny-ps" xmlns="http://www.w3.org/2000/svg" viewBox="0 0 149 250" width="149" height="250">
	<title>atletico-goianiense-logo-3</title>
	<style>
		tspan { white-space:pre }
		.s0 { fill: #010101 } 
		.s1 { fill: #dc1212 } 
		.s2 { fill: #fefefe } 
		.s3 { fill: #cead76 } 
		.s4 { fill: #cbced0 } 
	</style>
	<g >
		<path fill-rule="evenodd" class="s0" d="m0.11 92.92c0.05 0.02 1.09 0.76 4.54 3.25l0 28.52c0 27.06 0.01 28.53 0.19 28.88c0.1 0.2 2 2.67 4.22 5.5c2.22 2.82 5.45 6.93 7.18 9.12c1.73 2.2 3.21 4 3.29 4.02c0.12 0.02 0.14-4.91 0.14-32.43c0-21.57 0.03-32.46 0.1-32.46c0.06 0 0.46 0.27 0.91 0.6c0.44 0.33 2.62 1.93 4.84 3.55c2.22 1.62 4.8 3.51 5.73 4.19c1.27 0.93 1.73 1.33 1.84 1.58c0.11 0.28 0.14 6.68 0.14 36.34c0 34.34 0.01 36.02 0.18 36.37c0.1 0.2 3.14 4.12 6.74 8.71c3.61 4.59 6.83 8.69 7.16 9.1c0.33 0.41 0.65 0.75 0.71 0.75c0.07 0 0.1-13.46 0.1-40.18c0-33.14 0.02-40.18 0.14-40.15c0.07 0.01 1.12 0.73 4.51 3.14l0.01 41.58c0.01 39.13 0.02 41.6 0.19 41.96c0.1 0.21 4.97 6.5 10.84 13.97c5.86 7.47 10.68 13.58 10.71 13.58c0.03 0 1.75-2.18 3.83-4.83c2.08-2.66 6.85-8.73 10.6-13.5c3.75-4.77 6.93-8.83 7.31-9.39l0-35.02c0-30.95-0.02-35.02-0.16-35c-0.08 0.01-3.35 2.62-7.26 5.78c-3.91 3.17-7.19 5.87-7.3 6.01c-0.19 0.25-0.19 1.08-0.19 32.53c0 24.37-0.03 32.33-0.12 32.51c-0.07 0.13-1.58 1.95-3.36 4.04c-1.78 2.1-3.28 3.81-3.32 3.81c-0.04 0-1.54-1.71-3.33-3.81c-1.91-2.23-3.31-3.96-3.38-4.18c-0.1-0.28-0.13-8.9-0.13-39.64c0-21.6 0.02-39.27 0.05-39.27c0.03 0 0.18 0.08 0.34 0.18c0.16 0.1 1.61 1.15 3.23 2.34c2.04 1.49 3.03 2.15 3.21 2.15c0.17 0 2.2-1.43 6.05-4.26c3.19-2.34 9.02-6.61 12.96-9.49c3.94-2.88 7.2-5.2 7.24-5.17c0.04 0.03 0.09 18.13 0.11 40.21c0.02 22.08 0.05 40.17 0.07 40.2c0.02 0.03 0.16-0.09 0.29-0.26c0.14-0.17 1.81-2.29 3.71-4.72c1.9-2.42 11.44-14.58 21.19-27.01c9.75-12.43 17.83-22.81 18.16-23.54l0.06-56.93l4.6-3.28l0.03 30.96c0.03 30.45 0.02 30.96-0.17 31.35c-0.11 0.21-16.81 21.55-37.1 47.41c-20.3 25.86-36.98 47.1-37.08 47.2c-0.16 0.16-2.72-3.08-37.21-47.06c-20.37-25.98-37.12-47.31-37.23-47.4c-0.17-0.16-0.18-1.71-0.17-31.31c0.01-17.13 0.05-31.13 0.1-31.11zm129.26 14.29c0.04 0 0.07 12.96 0.05 28.8c-0.03 28.58-0.03 28.8-0.23 29.18c-0.11 0.21-3.14 3.82-6.73 8.01c-3.59 4.2-6.55 7.63-6.6 7.63c-0.04 0-0.08-14.36-0.11-63.84l5.32-3.84c2.92-2.11 5.97-4.31 6.77-4.89c0.8-0.58 1.48-1.05 1.53-1.05z" />
		<path class="s1" d="m0.19 42.14c0.09 0.03 1.29 0.34 2.65 0.69c1.37 0.35 4.81 1.26 7.66 2.02c2.85 0.76 7.9 2.11 11.23 3.01c3.33 0.89 8.73 2.34 12 3.21c3.27 0.88 9.02 2.42 12.78 3.42c3.76 1.01 9.16 2.45 12 3.21c2.85 0.76 7.54 2.02 10.42 2.79c2.89 0.77 5.4 1.41 5.59 1.41c0.18 0 11.91-3.1 26.05-6.89c14.14-3.79 30.7-8.22 36.78-9.85c6.09-1.63 11.2-2.96 11.64-2.96l0 50.65l-2.24 1.61c-1.23 0.88-2.28 1.62-2.33 1.63c-0.05 0.01-0.09-2.51-0.09-5.6c0-3.45-0.04-5.69-0.1-5.78c-0.09-0.14-0.15-0.13-0.49 0.06c-0.21 0.12-5 3.12-10.63 6.67c-5.63 3.55-10.33 6.53-10.43 6.63c-0.17 0.16-0.18 0.59-0.18 14.07l-3.22 2.33c-1.77 1.28-3.28 2.34-3.36 2.36c-0.12 0.02-0.14-4.26-0.14-25.92c0-24.8 0-25.96 0.18-26.17c0.13-0.16 2.09-0.93 6.68-2.62c3.57-1.32 6.53-2.39 6.57-2.39c0.04 0 0.11 0.15 0.16 0.34c0.04 0.19 0.08 5.48 0.08 11.77c0 6.29 0.03 11.43 0.08 11.43c0.04 0 3.29-1.75 7.22-3.9c3.93-2.15 7.23-3.99 7.35-4.1c0.2-0.2 0.21-0.35 0.24-13.34c0.02-7.23 0-13.25-0.03-13.37c-0.03-0.13-0.13-0.23-0.24-0.23c-0.1 0-2.63 0.66-5.61 1.46c-2.99 0.8-12.32 3.3-20.75 5.55c-8.42 2.25-15.56 4.16-15.86 4.25c-0.3 0.08-0.64 0.24-0.75 0.36c-0.21 0.21-0.21 0.35-0.21 33.83c0 18.49-0.03 33.79-0.06 33.98c-0.06 0.34-0.37 0.59-4.98 3.94c-2.7 1.97-8.55 6.25-13 9.51c-5.41 3.97-8.17 5.94-8.34 5.94c-0.18 0-1.17-0.66-3.21-2.15c-1.62-1.19-3.1-2.25-3.62-2.56l0-32.27c0-17.75 0.02-32.34 0.05-32.43c0.03-0.09 0.13-0.16 0.23-0.16c0.1 0 1.07 0.32 2.15 0.72c1.08 0.39 2.34 0.87 2.79 1.06c0.69 0.28 0.96 0.34 1.6 0.34c0.68 0 0.93-0.06 2.02-0.5c0.68-0.27 2.01-0.77 2.95-1.11c0.94-0.34 1.74-0.61 1.78-0.61c0.04 0 0.09 7.28 0.13 32.35l4.76-2.62c2.62-1.44 5.91-3.24 7.32-4.01c1.7-0.93 2.59-1.48 2.66-1.63c0.07-0.16 0.11-6.52 0.11-20.17c0-18.33-0.01-19.95-0.16-20.09c-0.15-0.14-0.58-0.04-4.12 0.92c-2.17 0.59-6.89 1.86-10.49 2.83c-3.62 0.97-6.74 1.75-6.98 1.75c-0.24 0-3.14-0.73-6.44-1.61c-3.3-0.89-8.03-2.15-10.5-2.81c-2.48-0.66-4.56-1.17-4.63-1.14c-0.1 0.05-0.13 7.16-0.13 35.06c0 19.25-0.02 35-0.05 35c-0.03 0-1.03-0.7-2.22-1.56c-1.2-0.86-2.22-1.56-2.28-1.56c-0.07 0-0.1-11.41-0.1-34.01c0-33.87 0-34.01-0.21-34.22c-0.11-0.11-0.45-0.28-0.75-0.36c-0.3-0.08-9.02-2.42-19.38-5.19c-10.36-2.77-19.72-5.28-20.8-5.57c-1.08-0.29-2.05-0.5-2.15-0.46c-0.17 0.06-0.18 1.3-0.18 23.92c0 14.16-0.04 23.84-0.09 23.82c-0.05-0.01-1.1-0.75-4.55-3.24l0-25.39c0-23.58 0.02-25.38 0.18-25.33z" />
		<path class="s2" d="m4.96 48.32c0.09 0 1.03 0.23 2.08 0.51c1.05 0.28 10.39 2.78 20.75 5.55c10.36 2.77 19.08 5.11 19.38 5.19c0.3 0.08 0.64 0.24 0.75 0.36c0.21 0.21 0.21 0.35 0.21 74.4c0 49.39-0.03 74.19-0.1 74.19c-0.06 0-0.37-0.34-0.71-0.75c-0.33-0.41-3.55-4.51-7.16-9.1c-3.61-4.59-6.64-8.51-6.74-8.71c-0.18-0.35-0.18-2.03-0.18-36.37c0-29.66-0.02-36.07-0.14-36.34c-0.1-0.25-0.57-0.65-1.84-1.58c-0.93-0.68-3.52-2.57-5.73-4.19c-2.22-1.62-4.4-3.22-4.84-3.55c-0.44-0.33-0.85-0.6-0.91-0.6c-0.07 0-0.1 10.89-0.1 32.46c0 27.52-0.02 32.45-0.14 32.43c-0.08-0.01-1.56-1.82-3.29-4.02c-1.73-2.2-4.96-6.3-7.18-9.12c-2.22-2.82-4.11-5.3-4.22-5.5c-0.17-0.35-0.18-2.87-0.2-52.74c-0.01-28.81 0.02-52.4 0.07-52.44c0.05-0.04 0.16-0.07 0.25-0.07zm139.05 0.01c0.16 0 0.25 0.07 0.29 0.23c0.03 0.13 0.04 6.15 0.03 13.37c-0.03 12.99-0.03 13.14-0.24 13.34c-0.11 0.11-3.42 1.95-7.35 4.1c-3.93 2.15-7.17 3.9-7.22 3.9c-0.04 0-0.08-5.15-0.08-11.43c0-6.29-0.03-11.58-0.08-11.77c-0.04-0.19-0.11-0.34-0.16-0.34c-0.04 0-3 1.08-6.57 2.39c-3.86 1.42-6.57 2.47-6.67 2.59c-0.17 0.19-0.18 3.11-0.18 58.16c0 31.88 0.03 57.96 0.08 57.97c0.04 0 3.01-3.43 6.6-7.63c3.59-4.2 6.61-7.8 6.73-8.01c0.21-0.38 0.21-0.6 0.23-29.18c0.01-15.84-0.01-28.8-0.05-28.8c-0.04 0-1.56 1.07-3.36 2.38c-1.81 1.31-3.33 2.38-3.39 2.38c-0.07 0-0.1-2.36-0.11-6.87c0-6.46 0.01-6.88 0.18-7.04c0.1-0.09 4.79-3.08 10.43-6.63c5.63-3.55 10.42-6.55 10.63-6.67c0.34-0.19 0.4-0.2 0.49-0.06c0.06 0.1 0.09 12.29 0.05 68.38l-0.21 0.47c-0.12 0.26-8.19 10.64-17.95 23.07c-9.75 12.43-19.29 24.59-21.19 27.01c-1.9 2.42-3.57 4.55-3.71 4.72c-0.14 0.17-0.27 0.29-0.29 0.26c-0.02-0.03-0.05-33.43-0.05-74.22c0-49.24 0.03-74.23 0.1-74.37c0.06-0.11 0.3-0.28 0.54-0.36c0.24-0.08 7.52-2.04 16.17-4.35c8.65-2.31 18.06-4.83 20.9-5.6c2.85-0.77 5.28-1.4 5.41-1.4zm-90.96 12.85c0.08 0 2.31 0.58 4.98 1.3c2.66 0.71 7.35 1.97 10.42 2.8c3.07 0.82 5.79 1.5 6.03 1.5c0.24 0 3.35-0.78 6.98-1.75c3.6-0.96 8.32-2.24 10.49-2.83c3.54-0.96 3.97-1.06 4.12-0.92c0.16 0.14 0.17 1.76 0.16 20.09c0 13.65-0.04 20.01-0.11 20.17c-0.07 0.16-0.96 0.7-2.66 1.63c-1.41 0.77-4.7 2.58-12.08 6.63l-0.03-16.17c-0.01-8.89-0.06-16.17-0.1-16.17c-0.04 0-0.85 0.27-1.78 0.61c-0.94 0.34-2.27 0.83-2.95 1.11c-1.09 0.44-1.34 0.5-2.02 0.5c-0.64 0-0.92-0.06-1.6-0.34c-0.46-0.19-1.71-0.66-2.79-1.06c-1.08-0.39-2.05-0.72-2.15-0.72c-0.1 0-0.2 0.07-0.23 0.16c-0.03 0.09-0.05 32.36-0.05 71.73c0 56.23 0.03 71.65 0.13 71.94c0.07 0.21 1.48 1.94 3.38 4.18c1.79 2.1 3.29 3.81 3.33 3.81c0.04 0 1.54-1.72 3.32-3.81c1.78-2.1 3.3-3.92 3.36-4.04c0.09-0.18 0.12-8.14 0.12-32.51c0-31.46 0-32.28 0.19-32.53c0.11-0.14 3.39-2.85 7.3-6.01c3.91-3.17 7.17-5.77 7.26-5.78c0.14-0.02 0.15 4.05 0.16 70.02l-0.24 0.36c-0.13 0.2-3.31 4.26-7.07 9.03c-3.75 4.77-8.52 10.84-10.6 13.5c-2.08 2.66-3.8 4.83-3.83 4.83c-0.03 0-4.85-6.11-10.71-13.58c-5.86-7.47-10.74-13.76-10.84-13.97c-0.17-0.36-0.18-4.72-0.2-76.97c-0.01-42.12 0.02-76.62 0.07-76.65c0.05-0.04 0.15-0.07 0.22-0.07z" />
		<path class="s3" d="m28.35 7.05c0.06 0 0.57 1.43 1.13 3.19c0.56 1.75 1.36 4.23 2.49 7.8l5.74 0.03c3.73 0.02 5.75 0.06 5.76 0.13c0.01 0.06-2.03 1.59-4.53 3.4c-2.5 1.81-4.58 3.33-4.62 3.37c-0.04 0.04 0.74 2.55 1.73 5.57c0.99 3.02 1.77 5.53 1.73 5.56c-0.04 0.04-2.17-1.47-4.73-3.34c-2.56-1.88-4.71-3.39-4.79-3.36c-0.07 0.03-2.12 1.5-4.55 3.28c-2.43 1.78-4.48 3.27-4.55 3.32c-0.07 0.05-0.18 0.07-0.23 0.04c-0.06-0.03 0.13-0.76 0.46-1.79c0.31-0.96 1.12-3.43 3-9.26l-4.62-3.34c-2.54-1.84-4.61-3.39-4.6-3.45c0.02-0.07 2.05-0.11 11.5-0.15l1.69-5.26c0.93-2.89 1.73-5.37 1.78-5.5c0.05-0.13 0.14-0.23 0.19-0.23zm92.34 0.03c0.06 0.02 0.91 2.5 3.63 10.96l5.73 0.03c3.71 0.02 5.74 0.06 5.76 0.13c0.02 0.06-2.06 1.62-4.62 3.47c-2.56 1.85-4.63 3.39-4.61 3.42c0.02 0.03 0.81 2.41 1.75 5.29c0.94 2.88 1.74 5.34 1.77 5.47c0.03 0.13 0.02 0.23-0.04 0.23c-0.06 0-2.14-1.49-4.63-3.31c-2.49-1.82-4.6-3.34-4.68-3.37c-0.1-0.04-1.83 1.16-4.76 3.31c-3.02 2.21-4.64 3.33-4.71 3.27c-0.07-0.07 0.49-1.9 1.64-5.42c0.96-2.92 1.75-5.38 1.76-5.46c0.01-0.08-2.06-1.64-4.58-3.47c-2.53-1.83-4.59-3.38-4.58-3.44c0.01-0.07 2.03-0.11 11.5-0.16l0.78-2.46c0.43-1.35 1.23-3.83 1.77-5.5c0.61-1.86 1.03-3.02 1.1-3z" />
		<path class="s1" d="m19.69 59.73c0.07 0 3.06 1.08 6.65 2.4c4.49 1.65 6.58 2.46 6.7 2.62c0.18 0.21 0.19 1.09 0.18 18.86c0 14.84-0.03 18.64-0.13 18.64c-0.07 0-3.04-1.83-6.6-4.06c-3.56-2.23-6.57-4.16-6.93-4.55v-16.95c0-13.49 0.03-16.95 0.13-16.95z" />
		<path class="s4" d="m74.52 0.22c0.06 0.02 1.4 4.02 5.83 17.77l9.34 0.05c6.09 0.03 9.34 0.09 9.36 0.16c0.01 0.06-3.3 2.52-7.37 5.47c-4.07 2.95-7.47 5.41-7.55 5.46c-0.13 0.08 0.31 1.52 2.76 8.99c1.61 4.9 2.89 8.94 2.85 8.99c-0.04 0.05-3.45-2.38-7.58-5.39c-4.13-3.01-7.57-5.47-7.66-5.47c-0.09 0-3.52 2.46-7.63 5.47c-4.11 3.01-7.52 5.46-7.58 5.46c-0.06 0-0.1-0.02-0.1-0.05c0-0.03 1.32-4.07 2.92-8.98c2.46-7.51 2.9-8.94 2.77-9.02c-0.09-0.05-3.48-2.51-7.55-5.46c-4.07-2.95-7.4-5.41-7.4-5.47c0-0.07 3.2-0.11 18.72-0.16l2.78-8.68c1.53-4.78 2.83-8.79 2.88-8.92c0.05-0.13 0.15-0.23 0.21-0.21z" />
	</g>
</svg>