<svg height="288.726771" viewBox="0 0 157.90176 131.62476" width="346.348209" xmlns="http://www.w3.org/2000/svg"><g transform="matrix(5.0379425 0 0 5.0379425 -427.118528 -354.18603)"><path d="m100.42481 92.375824c-.27277-.0092-.74117-.06392-1.203777-.140621-1.308769-.216985-2.685633-.776841-3.893148-1.583017-.3896-.260106-.705-.500967-.683788-.522178.01963-.01963 1.429191-.03884 3.855137-.0525l2.405336-.01356.22551-.09354c.12403-.05144.25421-.101218.28929-.1106.0573-.01535.0656-.01466.0812.0068.0299.04097.0974.05015.46427.06316.45454.01612 2.47254.0162 3.01954.000137.49528-.01454.56918-.02381.82282-.1029.10665-.03326.19895-.05855.20511-.0562.006.0024-.003.0648-.0214.138772-.0186.07699-.0309.16321-.0287.201639.003.05726.01.0696.0391.08394.0538.02571.36993.04371.76983.04384l.36116.00012-.10555.08782c-.30681.255113-.88485.62433-1.42372.90938-1.05132.556129-2.25042.92631-3.52042 1.086815-.3798.048-1.11006.07123-1.65784.05275z" fill="#cc2321" stroke-width=".022418"/><path d="m95.295319 76.744786c0-.06862.140145-.45454.181806-.500634.110721-.122505.899345-.616862 1.323973-.829946.909673-.456483 2.032587-.801137 2.987829-.917045.439963-.05339 1.543683-.07443 1.943423-.03705 1.88728.176463 3.7339.945274 5.13936 2.139691l.18821.159947h-5.8823c-3.235265 0-5.882301-.0067-5.882301-.01497z" fill="#cc2321" stroke-width=".041179"/><path d="m100.64551 96.427217c-.007-.006-.25865-.0231-.5593-.0384-2.69519-.13764-5.41019-1.22657-7.56547-3.03436-.883-.74064-2.00126-2.01248-2.59496-2.95137l-.15901-.25145h-.26376-.26376l.0301-.12026c.0166-.0661.0526-.20863.0801-.31663.049-.19259.0448-.20735-.21988-.76529-.14844-.31291-.30487-.6624-.34761-.77665l-.0777-.20772h-.3555-.35549l-.36345 1.09327-.36344 1.09328h-1.24302c-1.01521 0-1.24301-.0108-1.24301-.0591 0-.0325.36268-1.16897.80597-2.52547.44328-1.35649 1.0247-3.14527 1.29204-3.97507.61309-1.90297.59546-1.85585.7536-2.014.073-.073.12543-.13823.11649-.14494-.009-.007-.0785-.0552-.15462-.10766-.0761-.0525-.18925-.19759-.25145-.32241-.2036-.40856-.13251-.80566.20825-1.16326l.13766-.14447-.21857.0998c-.16545.0756-.29829.0999-.54655.10001-.80707.00043-1.51291-.48051-1.73385-1.1814-.13832-.43878.0291-.933348.42338-1.250793.36982-.297742 1.09948-.390393 1.83524-.233036.18039.03858.50348.08192.71798.09632.34476.02314.3869.01812.36334-.04327-.18704-.487417.0759-1.063096.62118-1.359859.24148-.131426.70389-.244207 1.00883-.24605l.19679-.0012.32798-.425798c.39474-.512461 1.54043-1.674178 2.05536-2.084103.96686-.769706 2.37113-1.580108 3.48468-2.011004.82591-.319592 1.87725-.595605 2.85632-.749881.61965-.09764 2.44538-.135496 3.13499-.065 2.15254.220044 4.18821.943858 5.95 2.115606.821.546045 1.21746.876985 2.04651 1.708318.75507.757154 1.29862 1.426092 1.77038 2.178764l.2393.38179 1.95064.000856 1.95064.000857-.31387 1.060478c-.17264.583265-.33649 1.099835-.36413 1.147945-.0276.0481-.3579 1.20423-.73392 2.56916l-.68368 2.48171.1334.2079c.34407.53617.5002 1.08723.49296 1.73976-.01.8548-.20592 1.2996-.89657 2.03035-.26224.27747-.54569.61272-.62989.74501-.0842.13228-.25569.34932-.38109.48231-.1254.13298-.26265.31009-.305.39358-.47412.93467-1.39654 2.16389-2.28726 3.04803-2.26802 2.25125-5.43039 3.65604-8.44955 3.75346-.37281.012-.76069.0286-.86196.0369-.10128.008-.18983.0103-.19679.004zm2.08235-.89678c2.82078-.42439 5.38744-1.78971 7.30084-3.88363.37354-.40879 1.10329-1.34394 1.26606-1.62243l.079-.13517-.1446.00067c-.18771.00087-.20461.0145-.42528.34186-.53723.79705-1.47957 1.80959-2.29727 2.46841-1.64915 1.32872-3.70805 2.22642-5.84887 2.55015-.62443.0944-2.21031.12976-2.86089.0637-2.15852-.21905-4.16577-.97168-5.87265-2.20199-1.00995-.72795-1.98621-1.70414-2.75295-2.75273-.1509-.20637-.20668-.25145-.3111-.25145-.07 0-.13702.0158-.14899.0352-.0266.043.44304.68485.87027 1.18926.17316.20444.56245.61095.86508.90335 1.98401 1.91697 4.56594 3.09678 7.39917 3.38106.64426.0646 2.18565.0185 2.88217-.0863zm-1.32236-.98428c.0414-.0158.0539-.0917.0433-.26239-.0138-.22071-.007-.24011.0784-.24011.0561 0 .1739.0874.29481.21866.17588.19093.22315.21865.3728.21865h.17139l-.0862-.12111c-.0474-.0666-.14224-.17976-.2107-.25145l-.12446-.13034.12502-.12166c.095-.0924.12058-.15193.10653-.24761-.0157-.10678-.001-.12941.0936-.1486.0617-.0125.14403-.035.18302-.0501.0589-.0228.0911.0541.19086.45611.066.26596.13611.48356.15585.48356.0197 0 .0845-.0185.14397-.0411l.1081-.0411-.12164-.48075-.12163-.48076.16944-.0286c.13797-.0233.16945-.0469.16945-.12682 0-.054-.0109-.10904-.0241-.1223-.0133-.0133-.17561.0141-.36078.0609-.71399.18019-.67199.16258-.63919.26801.0288.0926.0268.0934-.0559.0196-.0665-.0594-.16351-.0764-.43219-.0759-.58451.001-.55932-.0239-.52497.51979.0479.75769.0699.81175.29525.72554zm-.007-.8434c0-.12103.0155-.13507.17966-.1628.13395-.0226.19665-.0134.2465.0365.0949.0949.0373.20471-.10773.20542-.0669.00033-.16591.0125-.22003.027-.0862.0231-.0984.01-.0984-.10608zm-.56683.66729c.32902-.31522.24211-.88496-.16067-1.05325-.32862-.1373-.70528-.0171-.84394.26932-.0932.19258-.0811.52129.0246.66544.22158.3022.72473.36304.97999.11849zm-.68282-.19886c-.10217-.11289-.10283-.38711-.001-.54206.0568-.0867.10873-.11024.24297-.11024.23834 0 .37158.16626.33193.41418-.0153.0956-.0594.20886-.0981.25158-.10002.11052-.37022.10288-.4755-.0135zm-1.24398-.16723c.0514-.21428.0517-.21457.18993-.17492.3674.10536.60862-.002.66747-.29576.0441-.22041-.14492-.38516-.56125-.48924-.1864-.0466-.33899-.072-.33909-.0564-.00009.0156-.0674.28044-.14966.58857l-.1495.56024.095.0383c.16693.0673.19457.0482.2471-.17079zm.18631-.43397c-.0356-.0226-.0456-.0829-.0282-.16989.0255-.12763.0343-.13276.16451-.0956.26703.0761.30936.30247.0563.30123-.0756-.00036-.16228-.0164-.19262-.0357zm4.96051.36754c.12436-.0579.24735-.14497.27332-.19349.0725-.13553.0562-.33557-.0367-.44989-.0781-.096-.11035-.10243-.46306-.0916-.40456.0124-.46383-.0307-.2263-.16461.0944-.0532.13253-.0553.20301-.0113.0666.0416.1125.0425.19733.004.1277-.0582.13597-.0921.0447-.18339-.16629-.16629-.468-.13773-.70037.0663-.19744.17336-.21061.37827-.0333.51776.10597.0833.15273.0903.43187.0641.19675-.0184.32323-.0128.34048.0151.0469.0759-.0173.17318-.15064.22842-.10634.044-.14589.0411-.23563-.0177-.0873-.0572-.12896-.061-.21891-.02-.13613.062-.13757.0847-.0127.19831.18831.17133.28722.17778.58689.0383zm-5.64417-.0913c.0853-.0853.1069-.14612.0964-.27122-.0114-.13533-.05-.18976-.23988-.3383-.22903-.17914-.29996-.33008-.15511-.33008.11536 0 .27212.12466.27212.21639 0 .0495.0426.091.11134.10819.36167.0908.18215-.36384-.20482-.51868-.31052-.12425-.56248.005-.56248.28855 0 .0892.0598.17115.23996.32919.27479.24099.31183.36352.10988.36352-.1504 0-.30611-.13347-.30611-.26239 0-.0481-.0148-.0877-.0328-.0881-.018-.00033-.0771-.0125-.13119-.027-.0883-.0237-.0984-.0107-.0984.1259 0 .40537.62118.68385.90108.40396zm3.40643-1.63995c1.08317-.12018 2.13485-.4201 3.05047-.86994.50166-.24647 1.15456-.64971 1.45383-.8979l.13119-.1088-.48104-.002c-.26458-.001-.50732-.0189-.53943-.0393-.0458-.029-.0484-.0732-.0121-.20459.0255-.0922.0417-.17218.0361-.1778-.006-.006-.11824.0271-.25027.0727-.21981.0759-.38851.083-2.00023.0843-1.47042.001-1.76018-.009-1.76018-.0591 0-.0457-.0669-.0323-.27331.0547l-.27332.11518-2.78786.0125c-1.53332.007-2.78708.0265-2.78615.0437.00094.0172.0944.10006.20773.18414 1.28206.9514 2.75766 1.56636 4.18554 1.74433.21647.027.44278.0562.50291.0648.24035.0347 1.22571.0244 1.59618-.0167zm7.15002-7.06191 1.42126-4.65733.33975-.00002.33975-.00001-.0271.12026c-.30027 1.3315-.68482 2.51796-1.1836 3.65176-.85723 1.94863-1.06428 3.13444-.71178 4.07656.26944.72015 1.21225 1.20602 2.08825 1.07617.64622-.0958 1.07299-.38067 1.51477-1.01114.13067-.18648.42806-.53297.66086-.76998.49797-.50697.68744-.847.7649-1.37276.10066-.68334-.16211-1.51193-.62353-1.96613-.25435-.25036-.36076-.28257-.32552-.0985.0127.0661.0359.22849.0516.36078l.0286.24052-.17881-.35432c-.21194-.41996-.53981-.77252-.85484-.91922-.27193-.12662-.43442-.13775-.40096-.0275.0647.21328.11654.71175.0921.88555-.0152.10824-.0987.41326-.18539.67783-.12843.39179-.15832.55001-.16111.85276-.004.41398.0351.5395.28985.93606.14409.22428.16591.29214.16591.51602 0 .36891-.13261.5818-.46794.75122-.32841.16593-.87406.0198-1.14336-.30629-.38096-.46125-.29375-1.01952.44965-2.87869.57661-1.44201.9776-2.73488 1.2723-4.10205l.0731-.33892h.34546c.19 0 .34546.0167.34546.0371s-.15477.57138-.34393 1.22438l-.34393 1.18727.17994.0453c.28743.0724.7244.26542.96014.42406.11976.0806.23164.13098.24864.11198.0273-.0305 1.07419-3.7734 1.12584-4.02501l.0202-.0984h-1.1913-1.19131l.0276-.138c.0152-.0759.0402-.30192.0556-.50227l.028-.36428 1.31462-.0116 1.31462-.0116.10076-.32798c.0554-.18039.12898-.421457.16348-.535704l.0627-.207722h-2.78831-2.78831l-.16118.52166c-.0886.286916-.16117.532896-.16117.546636 0 .0137.41363.025.91918.025h.91919l-.0209.0984c-.0115.0541-.0442.28043-.0726.50291l-.0517.40451h-1.01852c-.93226 0-1.02044.006-1.04113.0765-.0124.0421-.72219 2.37171-1.57726 5.17694-.85507 2.80522-1.55467 5.11258-1.55467 5.12746 0 .0149.32963.0271.7325.0271l.73249-.00002zm-8.35263 4.52424c.35832-.0567.69833-.21942.87214-.41738.14034-.15983.40448-.65202.51333-.95652.0347-.0971.5929-1.97348 1.24038-4.16962s1.19234-4.01899 1.2108-4.05076c.0488-.084.95037-1.2413.96022-1.23256.005.004-.72847 2.4152-1.62898 5.3581-.90052 2.94289-1.6373 5.35803-1.6373 5.36696 0 .009.5883.0162 1.30733.0162 1.58496 0 1.71934-.0261 2.1408-.41634.4006-.37088.50622-.61976 1.14313-2.69365.31295-1.01902.569-1.87947.569-1.91211 0-.0326-.0329-.12878-.0732-.21363-.12795-.26965-.30369-.31604-1.20143-.31716l-.77173-.00096.12082-.40451.12081-.40451.69465-.0269c.87964-.0341 1.24372-.13066 1.48986-.3952.18754-.20156.41046-.77855.82529-2.13615.23151-.75764.51501-1.68255.63001-2.05535.11501-.37281.20062-.6926.19025-.71063-.0104-.018-.21448-.0328-.45358-.0328s-.43458-.0148-.43439-.0328c.00018-.01804.0394-.160712.0871-.31705.0477-.156339.087-.299011.0871-.31705.00019-.01804-.31168-.0328-.69304-.0328h-.69338l-.27502.349848-.27503.349852h-.26109-.2611l.0764-.120264c.042-.06614.11948-.179297.17212-.251454.1843-.252639.20334-.240532-.37802-.240374l-.53828.000146-.67498.874476c-.37123.48096-.6839.87447-.69482.87447-.0109 0-.006-.33507.0116-.74461l.0315-.744621-.64861.01212-.64862.01212-.0267.918361c-.0147.50509-.0294 1.13967-.0328 1.41017l-.006.49182-.46908.48553-.46908.48553-.24556.79376c-.13506.43656-.24128.79951-.23605.80655.01.0129.27527-.26301.82525-.85674.1626-.17555.28512-.28378.27225-.24053-.0129.0433-.20059.67887-.41717 1.41246-.78956 2.67439-1.36823 4.38331-1.5899 4.69525-.049.0689-.16975.16199-.26833.20676-.16926.0769-.34949.0815-3.23244.0824-2.88756.00091-3.05196-.003-3.03045-.0756.0125-.0421.0356-.13065.0514-.19679l.0287-.12026h2.30765c1.79317 0 2.3176-.0122 2.35226-.0547.0417-.0511.31595-.88465.31595-.96034 0-.019-1.03315-.0345-2.29588-.0345-1.26274 0-2.29588-.0134-2.29588-.0297s.0432-.16392.0961-.32798l.0961-.29829h2.32367 2.32368l.14569-.4701c.0801-.25856.1544-.49471.16506-.52478.0153-.0433-.46335-.0547-2.30017-.0547h-2.31955l.0996-.29518.0996-.29519 2.32114-.0113 2.32115-.0113.15655-.46981c.0861-.25839.15654-.49437.15654-.52439 0-.0429-.49017-.0546-2.29588-.0546-1.26273 0-2.29588-.0147-2.29588-.0327s.0503-.18365.11176-.36821l.11175-.33556 1.95454-.0175c2.1894-.0196 2.26357-.029 2.59366-.3272.25639-.23163.35176-.42712.64698-1.32612.27554-.83908.31499-1.0899.20466-1.30111-.0828-.15855-.28232-.34258-.43313-.39956-.0799-.0302-.77538-.0465-1.98351-.0465-1.47023 0-1.85605-.0115-1.83967-.0547.0114-.0301.0666-.19734.12262-.37172l.10188-.31705h2.30508 2.30508l.15711-.49886c.0864-.274376.15712-.510524.15712-.524775 0-.01425-1.35724-.02591-3.01608-.02591h-3.01608l-.44462 1.366595c-.24455.75163-.45389 1.3912-.46522 1.42126-.0163.0433.45769.0547 2.27996.0547 1.26531 0 2.30056.0117 2.30056.0259 0 .11633-.33479 1.06452-.40004 1.13296-.0807.0847-.15521.0881-2.36286.10933l-2.27948.0219-1.30213 4.02159c-.71617 2.21188-1.29254 4.0371-1.28083 4.05606.0327.0529 8.24992.0422 8.58742-.0112zm3.34024-1.36468c.0309-.10222.26121-.85981.51175-1.68353l.45552-1.49768.40746-.00011c.36806-.0001.40514.007.3835.0764-.0132.0421-.22953.75178-.48078 1.57709-.25124.8253-.48822 1.5485-.52663 1.60711-.0649.099-.096.10656-.43843.10656h-.36861zm1.91895-6.29727c.0115-.0301.22509-.72866.47474-1.55245l.45392-1.49779h.38269c.21049 0 .3827.017.3827.0378 0 .11712-.89289 2.92689-.95036 2.99062-.0547.0607-.14101.0765-.41676.0765-.26015 0-.3425-.0138-.32693-.0547zm-18.58801 6.55137c.18689-.5758.356-1.06311.37582-1.08293.0198-.0198.70713-.0308 1.52737-.0245l1.49134.0115-.34617 1.06904c-.1904.58797-.34618 1.0755-.34618 1.0834 0 .008.32913.009.7314.002l.73141-.012 1.08178-3.32356c.59498-1.82795 1.08209-3.37275 1.08247-3.43288.002-.28379-.29349-.66174-.56333-.721l-.13073-.0287.25186-.2096c.76713-.63841 1.11066-1.27184.97102-1.79042-.0626-.23244-.38552-.59321-.592-.66135-.28062-.0926-.23702-.25888.0921-.35101.46069-.12899 1.01598-.62148 1.24388-1.10321.15694-.33174.16132-.441797.0231-.580023-.0931-.09313-.12257-.100446-.23982-.05957-.0735.02563-.21408.142638-.31236.260024-.19351.231128-.63467.526979-1.10129.738559-.16159.0733-.30092.13321-.30962.13321-.009 0-.0434-.0834-.077-.18537-.0749-.22704-.32564-.486255-.53813-.556382-.13187-.04352-.15812-.07262-.15812-.175308 0-.147597.0602-.176211.37095-.176211.36587 0 1.19511-.157748 1.59966-.30431.87962-.318671 1.16051-.789938.85071-1.427299-.15541-.319744-1.04448-1.232489-1.45995-1.49884-.43239-.277191-.73147-.294947-.85766-.05092-.10591.204805-.0861.416998.0488.523137.13483.106055.41678.121712.49498.02749.0448-.05395.0854-.04306.27867.07483.31775.193768.70461.590395.77045.789906.21933.664588-.6359 1.1364-1.92834 1.063814-.50389-.0283-.98534-.114796-1.40902-.253141-.1474-.04813-.44717-.09857-.66615-.112086-.48112-.0297-.77287.05006-1.02874.281224-.35773.323187-.30979.710139.11626.938478.25992.139299.73815.225562 1.02139.184236.24834-.03624.72995-.205202 1.06547-.373807.14223-.07147.25145-.104828.25145-.07679 0 .08203-.29084.533844-.42314.657324-.17981.167835-.37942.256445-.57765.256445-.21897 0-.36283-.054-.63912-.24008l-.21866-.14724-.28425.06682c-.44839.10541-1.52345.09377-2.11846-.02295-.83742-.164267-1.2856-.104331-1.56948.20989-.28571.31624-.26698.62212.06.97989.49541.54206 1.36862.64415 1.61247.18851.0522-.0976.0897-.10729.52202-.13503.71843-.0461 2.10971-.19295 2.73522-.28871.31017-.0475.60918-.0863.66446-.0863.10136 0 .36552.19153.323.23419-.0126.0126-.38074.10233-.81809.19932-1.78231.39524-2.59486.70436-3.00553 1.1434-.15261.16316-.19855.24565-.19843.35631.00034.29766.25738.53715.79631.74193l.22751.0864.0859-.12354c.1503-.21627.6081-.64611.89643-.84168.57879-.39257 1.38082-.69996 1.83254-.70235.29394-.002.58438.20678.64939.46581.0946.37702-.22811.74036-.99919 1.12489-.6651.33168-.85713.3741-1.9107.42213-.97728.0446-1.18009.0957-1.35542.34195-.0461.0648-.61982 1.77022-1.2749 3.78991s-1.20031 3.69726-1.21162 3.72791c-.0163.0441.1336.0532.71569.0437l.73626-.012zm.87917-2.71397.18096-.54664h1.51837 1.51836l-.0865.25142c-.0476.13827-.12607.38426-.17443.54664l-.0879.29522h-1.5249-1.5249zm.70077-2.16468.17783-.56851h1.52643c1.20291 0 1.52209.0116 1.50595.0547-.0113.0301-.0964.28589-.18911.5685l-.16864.51384h-1.51515-1.51515zm-.97127-4.14352c.0544-.0694.0528-.0709-.0165-.0165-.0421.033-.0765.0674-.0765.0765 0 .036.0359.0128.093-.06zm18.8425-2.946045c-1.32961-1.153362-3.07973-1.899388-4.91974-2.097144-.59559-.06401-1.72756-.02915-2.29588.0707-.92768.162993-1.73005.424709-2.55002.831767-.52407.260161-1.33721.77551-1.35816.860769-.007.03013-.0437.14826-.0807.262508l-.0673.207722 5.71241-.0018 5.71242-.0018zm4.42394-.115128c-1.70277-2.502788-4.25557-4.300135-7.1618-5.042389-1.1479-.293175-1.74834-.364648-3.0565-.363833-.9467.00059-1.23948.01658-1.74924.09556-1.88136.291477-3.52117.922926-5.0756 1.954486-.59716.396294-.624.425064-.48285.517551.10341.06776.12086.05992.65284-.293103 1.51396-1.004681 3.16963-1.628726 5.08053-1.914926.60972-.09132 2.66093-.07902 3.30169.0198 3.29541.508212 6.22963 2.30058 8.07315 4.93148.23392.33383.24951.346827.41595.346827h.17291zm-3.01074.07141c.29906-.152941.32421-.42747.0737-.803906-.0961-.144313-.17471-.285345-.17479-.313406-.00022-.08086.0992-.09508.22415-.03206.12957.06535.183.167795.14687.281635-.0161.05068.0166.109183.0959.171571.1136.08935.1235.09036.17648.0179.0309-.04222.0561-.143759.0561-.225645 0-.415722-.61763-.75234-.89768-.489248-.20442.192045-.17653.410884.0985.772703.20462.269202.0341.474443-.22494.2707-.10572-.08316-.11947-.119118-.10028-.262214.0187-.139524.006-.176584-.0811-.233553-.0568-.03724-.12219-.06771-.14522-.06771-.0666 0-.14568.294256-.11576.430483.0269.122407.2686.387281.43881.480857.11382.06257.30892.06343.42925.0019zm-16.47345-.85857c.11688-.1383.30765-.353269.42395-.477709.21074-.225508.21119-.226635.13614-.341181l-.0753-.114925-.15105.144391c-.0831.07941-.30675.330001-.49704.556858-.24829.296006-.33037.42238-.29068.447574.13307.08447.24616.0309.45398-.215008zm16.10886-1.157489c-.0529-.04285-.11337-.07791-.13434-.07791-.021 0-.1467.162176-.27941.360392l-.24128.360392v-.532837c0-.501043-.006-.536898-.0972-.600912-.0535-.03744-.11277-.06808-.13181-.06808-.036 0-.82055 1.164293-.82055 1.217662 0 .01666.0536.06281.11913.10256l.11912.07228.25515-.3792.25514-.379201-.0296.52814-.0296.528139.14636.09267.14637.09267.40935-.619428.40935-.619428zm-11.78831.525947.45649-.22703-.0624-.120598c-.0621-.12004-.0631-.120282-.22638-.05229-.0902.03757-.23754.105702-.32739.151409l-.16337.0831-.26334-.525343c-.14484-.288939-.28195-.525344-.30469-.525344-.0722 0-.26686.101325-.2543.132403.0986.244021.63281 1.310373.65657 1.310521.0178.00011.23769-.101963.48877-.226829zm9.97441-.205065c.21642-.09938.29853-.189904.41872-.461616.16439-.371626.0627-.725657-.26325-.916525-.41948-.245638-.8245-.114157-1.06351.345246-.2325.446877-.0193.920568.48227 1.071598.17954.05406.23468.04905.42577-.0387zm-.57049-.374942c-.12132-.121315-.13538-.26569-.0466-.47824.13399-.320686.4204-.426583.65489-.242136.18837.148172.15537.478825-.0728.729321-.12705.139496-.39151.135078-.53553-.0089zm-8.31665.06098c.21767-.06045.45111-.270093.51445-.462011.15565-.471624-.24092-1.068049-.70811-1.064985-.1827.0012-.46627.129219-.5905.266589-.31591.349307-.12269 1.075236.33474 1.257638.14435.05756.24978.05821.44942.0028zm-.40513-.38364c-.34219-.342191-.23062-.838199.18854-.838199.29656 0 .5519.550201.36706.790948-.15266.198833-.38431.218534-.5556.04725zm8.17571-.400889c.11405-.324703.2207-.632497.23701-.683987.0245-.07749.005-.102075-.11114-.1427-.0774-.02699-.15397-.03406-.17006-.01571-.027.03077-.47917 1.304704-.47917 1.349946 0 .03253.19166.100933.2564.0915.0344-.005.14728-.258314.26696-.599052zm-.72861.360781c.013-.06614.0104-.132505-.006-.147471-.0162-.01497-.17211-.06136-.34649-.103106-.17438-.04174-.31705-.08236-.31705-.09026s.0594-.2645.13206-.570217c.0726-.305717.1245-.563404.11527-.572639-.009-.0092-.0781-.03439-.15312-.05589-.15589-.04471-.11533-.13844-.35624.823328-.0745.297555-.12338.553381-.10855.568503.0259.02638.86464.255306.96679.263863.0273.0023.0602-.04997.0732-.116108zm-5.44374-.121183c.20702-.04175.43472-.257664.4906-.465215.0665-.246898-.0159-.612092-.18024-.799305-.16976-.193353-.34232-.259-.61255-.233034-.36614.03518-.60683.27631-.64208.643253-.0258.268672.0695.549446.24211.71315.12201.115718.37331.210198.49119.184673.0361-.0078.13102-.0274.21097-.04352zm-.37266-.290253c-.22304-.111688-.30707-.585392-.14125-.796203.10611-.1349.35338-.158157.51061-.04803.19398.135866.23281.624387.0619.779034-.10364.09379-.31145.125207-.43129.0652zm1.42015-.350903c-.0115-.23855-.006-.417979.0111-.398731.0176.01925.15338.207187.30171.417642.26122.370613.27512.382647.44193.382647h.17222l-.0249-.31705c-.0137-.174378-.038-.51384-.0541-.754361l-.0292-.43731-.13119.01533c-.0722.0084-.14104.0213-.15306.0286-.012.0073-.0103.207027.004.443845.0142.236817.0236.434205.0211.43864-.003.0044-.14064-.187435-.30685-.426378-.29551-.42482-.306-.43444-.47363-.43444h-.17142l.0252.251453c.0138.1383.0378.467922.0532.732495s.0347.49252.0428.506549c.008.01403.0771.01635.15341.0052l.13869-.02035zm2.32749.321935c.14428-.06923.15504-.08953.18766-.354257.019-.154451.0246-.306964.0123-.338915-.0158-.04119-.11813-.0581-.35165-.0581h-.32935v.153059c0 .149414.004.153059.17492.153059.14068 0 .17493.01575.17493.08044 0 .161313-.3781.240421-.55543.116212-.20952-.146756-.23822-.593915-.0509-.793294.13669-.145495.39911-.14243.53692.0063.10588.114242.22072.137094.33181.06602.0583-.0373.0583-.05498 0-.159073-.30223-.539565-1.17364-.36707-1.31399.260104-.15973.71374.49829 1.196884 1.1828.868463z" fill="#132241"/></g></svg>