<?xml version="1.0" encoding="UTF-8" standalone="no"?><svg xmlns:rdf="http://www.w3.org/1999/02/22-rdf-syntax-ns#" xmlns="http://www.w3.org/2000/svg" height="103.94" width="458.81" version="1.1" xmlns:cc="http://creativecommons.org/ns#" xmlns:dc="http://purl.org/dc/elements/1.1/" viewBox="0 0 458.81 103.94"><path d="M453.56,41.73h-29.7c-14.47,0-22.46,6.58-24.53,19.64-3.1,19.36,13.44,17.11,18.23,17.11h14.19c5.93,0,8.56,2.16,7.8,6.29-.65,4.33-4,6.58-9.86,6.58H395.76l-2,12.41h41.63c10.43,0,17.95-8,19.92-20.4,1.79-14.28-7.61-17.2-17.66-17.2H422.73c-5.26,0-7.23-1.69-7.05-5.45.1-4.41,3.48-6.48,9.59-6.48h26.31A7.71,7.71,0,0,0,458.73,48,5.18,5.18,0,0,0,453.56,41.73Z"/><path d="M211,41.73H183.27A7.61,7.61,0,0,0,176,48a5.14,5.14,0,0,0,5.26,6.21H203c11.47,0,14.38,2.63,12.88,12.12H194.26c-16.54,0-25.19,5.17-27.44,19.17-1.32,11.19,4.13,18.24,16.07,18.24h43.42l6.2-38.82C235.71,41.73,218.13,41.73,211,41.73Zm.94,50H191.44c-5.45,0-8.55-1.79-7.8-6.68.94-6.2,5.92-6.76,11.09-6.76H214Z"/><path d="M145.67,54.23H160.8A7.62,7.62,0,0,0,168,48a5.21,5.21,0,0,0-5.26-6.29h-17.3c-11.18,0-31.39,2.91-35.8,30.92-2.73,18.79,5.26,31.11,26,31.11H153.1a7.43,7.43,0,0,0,7.14-6.21,5.16,5.16,0,0,0-5.17-6.2H139.75c-12.59,0-14.75-3.29-13.34-12.12h30.45a7.63,7.63,0,0,0,7.33-6.39,5.31,5.31,0,0,0-5.36-6.39H128.57C130.07,57.05,134.86,54.23,145.67,54.23Z"/><path d="M331.85,54.23H347A7.62,7.62,0,0,0,354.22,48,5.21,5.21,0,0,0,349,41.73H331.57c-11.18,0-31.39,2.91-35.81,30.92-2.72,18.79,5.27,31.11,26,31.11h17.38a7.42,7.42,0,0,0,7.14-6.21,5.15,5.15,0,0,0-5.16-6.2H325.84c-12.6,0-14.76-3.29-13.35-12.12h30.45a7.82,7.82,0,0,0,7.43-6.39A5.31,5.31,0,0,0,345,66.45H314.75C316.25,57.05,321.14,54.23,331.85,54.23Z"/><path d="M305.63,41.73H285.52l-31.2,29.88,7-44.64a6.59,6.59,0,0,0-6.67-7.89A9.71,9.71,0,0,0,245.48,27h0l-12.12,76.88h15.88L254,73.59l20.3,30.26h21.53L272.64,72Z"/><path d="M112.31,47.37a4.81,4.81,0,0,0-4.89-5.74H78.1L76.22,53.19,69.45,96h0a6.6,6.6,0,0,0,6.68,7.89A9.54,9.54,0,0,0,85.24,96h0L92,53.1h13.63A7,7,0,0,0,112.31,47.37Z"/><path d="M396.61,47.37a4.75,4.75,0,0,0-4.8-5.74H362.4l-1.79,11.56-6.77,42.86h0a6.58,6.58,0,0,0,6.58,7.89,9.71,9.71,0,0,0,9.21-7.89h0l6.77-42.86H390A7,7,0,0,0,396.61,47.37Z"/><path d="M39.94,41.73H25.66L28,27h0v-.09c.65-4.42-2.26-7.9-6.68-7.9a9.65,9.65,0,0,0-9.21,7.9V27h0L0,103.76H31.11c25,0,33.27-20.77,35-31.68C68.7,52.44,59.68,41.73,39.94,41.73Zm9.21,31.2C47.65,83,42.48,91.16,27.82,91.16h-10L23.59,55H33.65C49,55,50.66,63,49.15,72.93Z"/><path d="M70.39,29H97.27l.94-6.11h-17L100.94,6.3l.94-6.3H78.1a3.72,3.72,0,0,0-3.57,3.1,2.56,2.56,0,0,0,2.63,3.1h14L71.43,22.84Z"/><path d="M60.24,0H46L41.35,29.13h7.43L52.35,6.48h6.11c5.73,0,4.7,3.29,4.32,5.27L60,29.23h7.52l2.91-18.42C71.71,1.88,67.86,0,60.24,0Z"/></svg>