<?xml version="1.0" encoding="UTF-8" standalone="no"?>
<svg
   xmlns:dc="http://purl.org/dc/elements/1.1/"
   xmlns:cc="http://creativecommons.org/ns#"
   xmlns:rdf="http://www.w3.org/1999/02/22-rdf-syntax-ns#"
   xmlns:svg="http://www.w3.org/2000/svg"
   xmlns="http://www.w3.org/2000/svg"
   xmlns:sodipodi="http://sodipodi.sourceforge.net/DTD/sodipodi-0.dtd"
   xmlns:inkscape="http://www.inkscape.org/namespaces/inkscape"
   height="300"
   width="261.93423"
   version="1.1"
   viewBox="0 0 261.93423 300"
   id="svg592"
   sodipodi:docname="USA_Basketball_logo.svg"
   inkscape:version="0.92.4 (5da689c313, 2019-01-14)">
  <metadata
     id="metadata598">
    <rdf:RDF>
      <cc:Work
         rdf:about="">
        <dc:format>image/svg+xml</dc:format>
        <dc:type
           rdf:resource="http://purl.org/dc/dcmitype/StillImage" />
      </cc:Work>
    </rdf:RDF>
  </metadata>
  <defs
     id="defs596" />
  <sodipodi:namedview
     pagecolor="#ffffff"
     bordercolor="#666666"
     borderopacity="1"
     objecttolerance="10"
     gridtolerance="10"
     guidetolerance="10"
     inkscape:pageopacity="0"
     inkscape:pageshadow="2"
     inkscape:window-width="1366"
     inkscape:window-height="705"
     id="namedview594"
     showgrid="false"
     inkscape:zoom="3.8618872"
     inkscape:cx="22.146548"
     inkscape:cy="30.55499"
     inkscape:window-x="-8"
     inkscape:window-y="-8"
     inkscape:window-maximized="1"
     inkscape:current-layer="svg592" />
  <path
     d="m 135.57192,169.82783 v 57.33432 a 65.940452,65.940452 0 0 0 40.65292,-17.03976 74.426559,74.426559 0 0 1 -17.83996,-39.892 q -11.34747,-0.3461 -22.81296,-0.40256"
     id="path544"
     inkscape:connector-curvature="0"
     style="fill:#ffffff;stroke-width:4.90918016" />
  <path
     d="m 197.05449,172.22553 q -15.33137,-1.14114 -30.95238,-1.73756 a 66.993373,66.993373 0 0 0 15.56701,34.14826 66.852185,66.852185 0 0 0 15.38537,-32.41065"
     id="path546"
     inkscape:connector-curvature="0"
     style="fill:#ffffff;stroke-width:4.90918016" />
  <path
     d="M 221.02111,95.4189 V 47.22057 l -90.054,-30.72656 -90.054002,30.72661 v 91.50712 c 28.090328,-2.80805 57.403043,-4.25626 87.614142,-4.25626 37.34413,0 69.6269,2.19931 92.49386,4.3888 z"
     id="path548"
     inkscape:connector-curvature="0"
     style="fill:#ffffff;stroke-width:4.90918016" />
  <path
     d="m 257.71723,138.98871 c -0.20128,-0.0393 -2.32204,-0.37801 -6.0432,-0.88856 a 184.07133,184.07133 0 0 0 2.58223,-31.27148 v -2.60678 l -1.50712,-1.27147 A 52.771281,52.771281 0 0 0 236.63721,95.3461 V 36.05302 L 130.96711,0 25.297005,36.05302 V 95.3461 a 52.831811,52.831811 0 0 0 -16.1070197,7.60432 l -1.5120275,1.27147 v 2.60678 a 184.62401,184.62401 0 0 0 2.5871382,31.29111 c -1.9783999,0.27492 -3.9617087,0.54492 -5.9351991,0.83947 L 0,139.64163 v 44.45753 l 6.0235641,-1.07511 c 0.05891,-0.015 5.6602849,-0.98674 15.9253809,-2.31222 31.644575,79.88218 104.015705,116.7894 107.123215,118.33579 l 1.89495,0.95238 1.89003,-0.95238 c 3.10751,-1.54639 75.41483,-38.42906 107.08395,-118.21797 5.85665,0.73638 11.15366,1.47275 16.11684,2.21895 l 5.87629,0.87874 v -44.28571 z m -0.01,40.01964 -1.0162,-0.1571 c -6.44575,-0.96711 -12.95532,-1.82621 -19.51399,-2.63623 -30.75601,81.34021 -106.21011,119.04271 -106.21011,119.04271 0,0 -75.522829,-37.74178 -106.264115,-119.16053 -12.282769,1.51203 -19.2439867,2.71969 -19.4256263,2.75405 l -1.0456554,0.18655 v -35.7781 l 0.7560137,-0.11783 c 3.377516,-0.49582 6.794305,-0.95238 10.216004,-1.40893 a 184.05253,184.05253 0 0 1 -3.284242,-34.90427 v -0.63328 A 55.397398,55.397398 0 0 1 29.533448,98.43397 V 39.08689 L 130.96693,4.47717 232.40532,39.08689 v 59.34708 a 55.563574,55.563574 0 0 1 17.61905,7.76142 v 0.63328 a 184.20511,184.20511 0 0 1 -3.28425,34.88463 c 6.48012,0.83947 10.08346,1.40894 10.22092,1.43348 l 0.74619,0.12273 z"
     id="path550"
     inkscape:connector-curvature="0"
     style="fill:#ffffff;stroke-width:4.90918016" />
  <path
     d="m 128.06578,169.80363 c -7.84487,0.0246 -15.43446,0.14728 -22.72459,0.35346 a 74.381296,74.381296 0 0 1 -17.997056,39.96564 66.546146,66.546146 0 0 0 40.721646,17.03976 z"
     id="path552"
     inkscape:connector-curvature="0"
     style="fill:#ffffff;stroke-width:4.90918016" />
  <path
     d="m 130.96711,247.9485 a 90.087776,90.087776 0 0 0 88.57143,-73.72607 q -7.5405,-0.75822 -15.13991,-1.40402 A 73.496809,73.496809 0 0 1 59.199804,172.62204 q -9.086893,0.72165 -16.813942,1.50712 a 90.074914,90.074914 0 0 0 88.581248,73.81934"
     id="path554"
     inkscape:connector-curvature="0"
     style="fill:#ffffff;stroke-width:4.90918016" />
  <path
     d="m 81.963672,204.63348 a 66.77516,66.77516 0 0 0 15.625921,-34.2268 c -11.129112,0.40746 -21.482573,0.99165 -30.957291,1.66421 a 66.055425,66.055425 0 0 0 15.33137,32.56259"
     id="path556"
     inkscape:connector-curvature="0"
     style="fill:#ffffff;stroke-width:4.90918016" />
  <path
     d="m 246.7403,141.71453 a 184.20864,184.20864 0 0 0 3.28425,-34.88463 v -0.63329 A 55.555376,55.555376 0 0 0 232.4055,98.43495 V 39.08797 L 130.96711,4.4783 29.533628,39.08802 V 98.4351 a 55.391703,55.391703 0 0 0 -17.614139,7.76166 v 0.63328 a 184.05007,184.05007 0 0 0 3.284242,34.90428 c -3.421699,0.45655 -6.838488,0.9131 -10.216004,1.40893 l -0.7560137,0.11782 v 35.7781 l 1.0456554,-0.18654 c 0.1816396,-0.0344 7.1428573,-1.24203 19.4256263,-2.75405 30.741286,81.41875 106.264115,119.16053 106.264115,119.16053 0,0 75.4541,-37.70251 106.21011,-119.04271 6.55867,0.81001 13.06824,1.66912 19.51399,2.63623 l 1.0162,0.15709 v -35.73883 l -0.74619,-0.12273 c -0.13746,-0.0245 -3.7408,-0.59401 -10.22092,-1.43348 m -80.63819,28.7727 q 15.60398,0.59686 30.95238,1.73785 a 66.850859,66.850859 0 0 1 -15.38537,32.41066 66.994305,66.994305 0 0 1 -15.56701,-34.14851 m 10.12273,39.63672 a 65.907855,65.907855 0 0 1 -40.65292,17.03486 v -57.32941 q 11.46544,0.0589 22.81296,0.40256 a 74.442415,74.442415 0 0 0 17.83996,39.89199 m -70.88365,-39.96563 c 7.29013,-0.20619 14.87972,-0.32892 22.72459,-0.35346 v 57.35395 A 66.513255,66.513255 0 0 1 87.344134,210.1241 74.398625,74.398625 0 0 0 105.34119,170.15847 M 81.963672,204.63564 A 66.058959,66.058959 0 0 1 66.632302,172.07275 C 76.10702,171.4002 86.460481,170.816 97.589593,170.40854 A 66.776141,66.776141 0 0 1 81.963672,204.63535 M 40.913108,138.7296 V 47.21762 l 90.054002,-30.72655 90.054,30.72655 v 91.63967 c -22.86696,-2.18459 -55.14973,-4.3839 -92.49386,-4.3839 -30.211099,0 -59.523814,1.44821 -87.614142,4.25626 m 18.286696,33.89298 A 73.49676,73.49676 0 0 0 204.39863,172.819 q 7.60667,0.64045 15.13991,1.40402 a 90.061659,90.061659 0 0 1 -177.152678,-0.0933 q 7.731958,-0.77305 16.813942,-1.50712"
     id="path558"
     inkscape:connector-curvature="0"
     style="fill:#002b54;stroke-width:4.90918016" />
  <polygon
     points="24.361,54.079 25.792,55.12 25.246,56.804 26.678,55.762 28.11,56.804 27.563,55.12 28.995,54.079 27.225,54.079 26.678,52.395 26.132,54.079 "
     id="polygon560"
     transform="scale(4.9091802)"
     style="fill:#ffffff" />
  <path
     d="m 50.83947,158.32135 c 0.284732,1.07511 0.554737,2.14041 0.829651,3.22043 q 1.67894,-0.13255 3.35297,-0.25037 -2.025233,-7.17948 -4.050073,-14.34463 -2.400589,0.18429 -4.801179,0.38292 -2.024987,7.49632 -4.045164,14.99264 c 1.040746,-0.0884 2.086402,-0.17183 3.117329,-0.2651 0.274915,-1.11929 0.554738,-2.23859 0.829652,-3.35788 1.585665,-0.13746 3.176239,-0.25528 4.766814,-0.37801 m -2.376043,-9.35198 q 0.883652,3.46097 1.762395,6.90721 -1.767305,0.13977 -3.539519,0.29946 c 0.594011,-2.4104 1.183113,-4.80608 1.777124,-7.20667"
     id="path562"
     inkscape:connector-curvature="0"
     style="fill:#ffffff;stroke-width:4.90918016" />
  <path
     d="m 28.566519,156.08429 c 0.54001,-0.60383 1.075111,-1.19784 1.610211,-1.80167 v -3.54934 c -0.648011,-0.57928 -1.300932,-1.16838 -1.944035,-1.75257 -3.176239,0.31909 -6.352479,0.64801 -9.513991,1.01129 v 14.64408 c 3.17133,-0.34855 6.34757,-0.69219 9.533628,-1.00638 0.648012,-0.71183 1.291114,-1.43839 1.944035,-2.1404 v -3.93226 z m -6.593029,-4.13844 q 2.150221,-0.22832 4.285715,-0.45164 c 0.216004,0.19636 0.436917,0.39764 0.652921,0.5891 v 2.29259 c -0.230732,0.27 -0.461463,0.5351 -0.692195,0.80019 -1.418753,0.14728 -2.822778,0.28964 -4.246441,0.44183 z m 4.953363,8.82671 c -0.211095,0.24055 -0.432008,0.4811 -0.648012,0.71703 -1.43348,0.1571 -2.866961,0.30437 -4.305351,0.45656 v -4.03535 c 1.413844,-0.15218 2.81787,-0.29946 4.221895,-0.44183 0.245459,0.22583 0.490918,0.44674 0.731468,0.67256 z"
     id="path564"
     inkscape:connector-curvature="0"
     style="fill:#ffffff;stroke-width:4.90918016" />
  <path
     d="m 66.921944,152.63584 v -4.77664 c 0.687285,-0.71674 1.37948,-1.44329 2.061856,-2.16004 q 3.637702,-0.22091 7.285223,-0.41237 0.986745,0.93486 1.983309,1.8704 v 2.35641 q -1.642072,0.0809 -3.279332,0.17182 v -1.31566 c -0.201277,-0.19146 -0.412372,-0.38292 -0.623466,-0.57928 -1.163476,0.0589 -2.341679,0.12763 -3.514973,0.20127 l -0.638194,0.65292 v 2.47914 c 0.152185,0.15218 0.314188,0.29455 0.461463,0.44183 1.968581,-0.11783 3.922435,-0.22583 5.881198,-0.33383 0.594011,0.56947 1.168385,1.11929 1.742759,1.67403 v 4.88954 c -0.672558,0.70693 -1.354934,1.42367 -2.032401,2.14041 -2.464408,0.13255 -4.923907,0.27491 -7.393225,0.42219 -0.667648,-0.62347 -1.330388,-1.23221 -1.993127,-1.85592 v -2.38095 c 1.084929,-0.0687 2.179676,-0.12273 3.269514,-0.19637 v 1.3353 c 0.206185,0.20128 0.407462,0.38782 0.613647,0.5891 1.217477,-0.0687 2.439863,-0.14728 3.65243,-0.216 0.206186,-0.21576 0.412372,-0.43692 0.613648,-0.66765 v -2.57177 c -0.152185,-0.14728 -0.304369,-0.30437 -0.461463,-0.45656 -1.953854,0.10309 -3.907707,0.22092 -5.861561,0.33383 -0.584193,-0.54001 -1.173294,-1.08984 -1.767305,-1.63476"
     id="path566"
     inkscape:connector-curvature="0"
     style="fill:#ffffff;stroke-width:4.90918016" />
  <path
     d="m 99.685812,144.31802 c 1.222388,-0.0393 2.434958,-0.0785 3.662248,-0.1031 l -4.113892,6.12666 q 2.157582,4.24153 4.295532,8.52234 c -1.20766,0.0246 -2.42023,0.0589 -3.632793,0.0933 -0.976927,-2.01768 -1.958763,-4.03044 -2.925871,-6.0432 -0.756014,1.10947 -1.516937,2.20913 -2.263132,3.3186 v 2.90133 c -1.094747,0.0295 -2.179676,0.0687 -3.269514,0.11291 v -14.64899 c 1.089838,-0.0442 2.174767,-0.0835 3.269514,-0.12273 v 7.68778 q 2.488954,-3.93226 4.977908,-7.84487"
     id="path568"
     inkscape:connector-curvature="0"
     style="fill:#ffffff;stroke-width:4.90918016" />
  <path
     d="m 138.05596,146.53353 v -2.63108 c 3.75062,0.0295 7.50614,0.0687 11.26657,0.15219 v 2.63623 c -1.3402,-0.0344 -2.66568,-0.054 -4.00589,-0.0785 v 12.02749 c -1.08493,-0.0243 -2.17967,-0.0393 -3.2646,-0.054 v -12.01276 q -2.00295,-0.0294 -3.99608,-0.0396"
     id="path570"
     inkscape:connector-curvature="0"
     style="fill:#ffffff;stroke-width:4.90918016" />
  <path
     d="m 219.5729,159.88512 v 2.60678 c -2.9406,-0.2651 -5.90574,-0.51056 -8.85616,-0.7462 v -14.6539 l 3.2597,0.2651 v 12.03731 c 1.87039,0.162 3.74079,0.324 5.59646,0.49091"
     id="path572"
     inkscape:connector-curvature="0"
     style="fill:#ffffff;stroke-width:4.90918016" />
  <path
     d="m 125.84683,146.37079 q -3.20343,0.0225 -6.41139,0.0589 v 3.45606 c 1.94404,-0.0147 3.89298,-0.0344 5.83702,-0.0442 v 2.50859 c -1.94404,0.005 -3.89298,0.0246 -5.83702,0.0393 v 3.67698 c 2.14532,-0.0196 4.30536,-0.0344 6.45558,-0.0491 v 2.50859 q -4.86731,0.008 -9.73982,0.0785 v -14.64408 q 4.85268,-0.0736 9.69563,-0.0884 z"
     id="path574"
     inkscape:connector-curvature="0"
     style="fill:#ffffff;stroke-width:4.90918016" />
  <path
     d="m 241.09475,162.02813 v 2.60677 c -2.9406,-0.324 -5.89593,-0.6431 -8.85125,-0.93274 v -14.65881 c 1.08983,0.11291 2.17967,0.22091 3.25969,0.34364 v 12.03731 c 1.8704,0.19637 3.72607,0.39764 5.59156,0.60383"
     id="path576"
     inkscape:connector-curvature="0"
     style="fill:#ffffff;stroke-width:4.90918016" />
  <path
     d="m 194.32008,145.91419 c -1.6053,-0.1031 -3.19097,-0.19637 -4.80609,-0.29455 q -2.02523,7.20918 -4.05498,14.41826 c 1.04565,0.0589 2.08149,0.11782 3.11733,0.17673 0.28964,-1.07541 0.55474,-2.15513 0.83456,-3.24497 1.59548,0.10309 3.18115,0.19146 4.77663,0.29455 0.27491,1.10948 0.55474,2.22877 0.82965,3.34806 1.1193,0.0687 2.2435,0.14237 3.34806,0.22092 q -2.02498,-7.46687 -4.04516,-14.919 m -4.29553,8.6107 q 0.89838,-3.46794 1.78694,-6.94649 c 0.58419,2.38586 1.16347,4.77663 1.76239,7.16249 -1.19293,-0.0786 -2.36131,-0.14236 -3.54933,-0.216"
     id="path578"
     inkscape:connector-curvature="0"
     style="fill:#ffffff;stroke-width:4.90918016" />
  <path
     d="m 171.86549,151.86996 c 0.54001,-0.52529 1.08002,-1.04566 1.62003,-1.57094 v -3.54443 c -0.65783,-0.67747 -1.30584,-1.35984 -1.95876,-2.03731 -3.18115,-0.12764 -6.36721,-0.24546 -9.53854,-0.34855 v 14.6539 c 3.18115,0.108 6.37702,0.216 9.56308,0.34855 0.64801,-0.62837 1.30093,-1.24693 1.95876,-1.8753 v -3.91753 c -0.54982,-0.56946 -1.09965,-1.14384 -1.64457,-1.70839 m -6.60776,-5.06628 c 1.43348,0.0442 2.87187,0.0933 4.29553,0.1571 0.22092,0.22091 0.43692,0.45164 0.66274,0.67746 v 2.29259 c -0.23073,0.23073 -0.4811,0.46637 -0.70201,0.6971 -1.41875,-0.0589 -2.8375,-0.108 -4.25626,-0.15709 z m 4.97791,9.5189 c -0.22582,0.2111 -0.43201,0.42249 -0.66274,0.63329 q -2.15758,-0.0809 -4.31517,-0.1571 v -4.04516 c 1.40403,0.0589 2.81787,0.108 4.23172,0.16691 0.24545,0.25528 0.49582,0.51055 0.74619,0.77565 z"
     id="path580"
     inkscape:connector-curvature="0"
     style="fill:#ffffff;stroke-width:4.90918016" />
  <path
     d="m 183.96662,87.8298 0.0245,0.19146 c 0.29946,1.88051 0.59401,3.77025 0.90329,5.64555 l 0.17673,1.10457 -1.10456,-0.11267 c -1.99313,-0.21109 -3.98626,-0.40255 -5.96466,-0.58419 l -0.92783,-0.0834 0.15709,-0.91311 c 0.33874,-1.92931 0.68729,-3.86844 1.03093,-5.79774 -15.15464,-1.39421 -30.54001,-2.09593 -45.75847,-2.09593 -8.32106,0 -16.6863,0.20619 -25.04173,0.62347 l 0.17673,0.17182 q 2.71714,2.60677 5.41974,5.23809 c 6.56357,-0.24546 13.09769,-0.378 19.43544,-0.378 l 1.92931,0.005 v 11.67403 l -1.94894,-0.005 q -2.68773,0 -5.38537,0.0294 l -0.8542,0.005 v -7.08414 c -6.35739,0.0785 -12.79332,0.27982 -19.14089,0.60874 l -0.89838,0.0393 V 85.87641 c -7.304865,0.38291 -14.599906,0.92292 -21.840947,1.62494 v 16.02356 l -0.770741,0.0785 c -2.115857,0.20618 -4.246441,0.4271 -6.35248,0.66274 l -0.942562,0.10309 V 88.34077 c -7.231223,0.82008 -14.496809,1.80167 -21.629848,2.92096 v 22.5675 q 4.756996,4.04281 9.528719,8.1836 c 10.643102,-1.45802 21.4973,-2.59204 32.282768,-3.3726 q 4.101671,-4.39608 8.208151,-8.71871 l 0.58419,-0.61855 0.61856,0.5891 q 4.08684,3.86617 8.17869,7.80069 c 10.27492,-0.37801 20.76092,-0.44183 31.17821,-0.18164 q 3.68188,-3.56407 7.35395,-7.08886 l 1.74276,-1.67894 -0.31419,2.40059 q -0.43461,3.30658 -0.88856,6.6323 c 6.55375,0.2651 13.13696,0.66765 19.59253,1.18802 l 1.88513,-10.78056 0.78056,0.0687 c 3.7948,0.32892 7.56505,0.6922 11.34512,1.10948 l 0.65292,0.0638 1.77712,11.12911 c 6.98576,0.79038 14.02553,1.73785 20.95729,2.82278 q -3.22533,-16.58321 -6.44575,-33.11733 C 197.133,89.32255 190.51051,88.50272 183.96658,87.82987"
     id="path582"
     inkscape:connector-curvature="0"
     style="fill:#002b54;stroke-width:4.90918016" />
  <path
     d="m 212.02258,124.24114 q -3.3947,-17.46686 -6.78939,-34.89936 l -0.11782,-0.59401 -0.59402,-0.0884 c -7.13303,-1.03093 -14.36426,-1.9244 -21.48748,-2.63623 l -1.09965,-0.11266 0.378,2.37579 c 0.23564,1.51694 0.47619,3.03879 0.72165,4.55572 -1.31566,-0.13255 -2.64604,-0.25527 -3.96171,-0.38291 0.33874,-1.9244 0.68729,-3.86353 1.03093,-5.79284 l 0.16691,-0.9131 -0.92292,-0.0884 a 505.83373,505.83373 0 0 0 -95.925381,0.2111 l -0.770742,0.0736 v 16.03339 q -2.341679,0.22832 -4.658812,0.486 V 86.44036 l -0.947471,0.10309 c -7.805597,0.86893 -15.665194,1.92931 -23.372607,3.1517 l -0.72165,0.11291 v 24.811 l 0.304369,0.25527 q 5.051547,4.2783 10.108002,8.67452 l 0.289642,0.25528 0.387825,-0.054 c 10.834561,-1.49239 21.904762,-2.65096 32.881689,-3.43643 l 0.333824,-0.0245 0.230732,-0.24546 q 3.91753,-4.19735 7.83996,-8.33088 3.9028,3.70393 7.81542,7.45705 l 0.26018,0.24545 0.36328,-0.01 c 10.47619,-0.39765 21.1733,-0.45165 31.78694,-0.18655 l 0.35837,0.01 0.25528,-0.24546 c 1.95385,-1.89495 3.89789,-3.78007 5.85174,-5.65047 -0.23073,1.67894 -0.46146,3.38243 -0.6971,5.13991 l -0.11782,0.92784 0.92783,0.0344 c 7.09868,0.27982 14.24154,0.71674 21.2273,1.29112 l 0.78056,0.0638 1.88021,-10.77566 c 3.30388,0.28965 6.59303,0.60874 9.88709,0.96711 l 1.77713,11.1193 0.6431,0.0687 c 7.57486,0.8542 15.22337,1.88513 22.72459,3.07806 l 1.20766,0.19146 z m -22.85714,-3.6868 -1.77712,-11.12911 -0.65292,-0.0638 c -3.78007,-0.41728 -7.55032,-0.78546 -11.34512,-1.10947 l -0.78056,-0.0687 -1.88513,10.78056 c -6.45557,-0.52037 -13.03878,-0.92293 -19.59253,-1.18802 q 0.45655,-3.32096 0.88856,-6.6323 l 0.31419,-2.40059 -1.74276,1.67403 q -3.68189,3.5268 -7.35395,7.09352 c -10.41729,-0.26019 -20.90329,-0.19637 -31.17821,0.18164 q -4.09425,-3.93226 -8.17869,-7.80094 l -0.61856,-0.5891 -0.58419,0.61856 q -4.10167,4.32234 -8.208151,8.7187 c -10.785468,0.77565 -21.639666,1.91458 -32.282768,3.37261 q -4.771723,-4.13844 -9.528719,-8.18385 v -22.5675 c 7.133039,-1.11929 14.398625,-2.10604 21.629848,-2.92096 v 16.02847 l 0.942562,-0.10309 c 2.106039,-0.23564 4.236623,-0.45656 6.35248,-0.6625 l 0.770741,-0.0788 V 87.50014 c 7.241041,-0.70201 14.536082,-1.24202 21.840947,-1.62985 v 10.24055 l 0.89838,-0.0393 c 6.34757,-0.32892 12.7835,-0.53019 19.14089,-0.60874 v 7.08395 l 0.8542,-0.005 q 2.69514,-0.0295 5.38537,-0.0295 l 1.94894,0.005 V 90.84322 l -1.92931,-0.005 c -6.33775,0 -12.87187,0.13255 -19.43544,0.37801 q -2.70255,-2.62882 -5.41974,-5.2381 l -0.17673,-0.17182 c 8.35543,-0.41728 16.72067,-0.62346 25.04173,-0.62346 15.21846,0 30.60383,0.6971 45.75847,2.09622 -0.34364,1.9293 -0.69219,3.86843 -1.03093,5.79774 l -0.15709,0.9131 0.92783,0.0835 c 1.9784,0.18164 3.97153,0.3731 5.96466,0.57928 l 1.10456,0.11782 -0.17673,-1.10456 c -0.30928,-1.87531 -0.60383,-3.76534 -0.90329,-5.64556 l -0.0245,-0.19146 c 6.54393,0.67256 13.16642,1.49239 19.71036,2.43005 q 3.22533,16.53161 6.44575,33.11733 c -6.93176,-1.08984 -13.97153,-2.0324 -20.95729,-2.82278 m -62.0864,-26.80845 c -6.35739,0.0736 -12.80805,0.2651 -19.18017,0.57929 v -5.72411 c 1.40894,1.35985 2.82769,2.7246 4.24153,4.09426 l 0.25528,0.25528 0.36819,-0.0147 c 6.66176,-0.26019 13.29897,-0.38783 19.72999,-0.38783 h 0.22092 v 8.26215 h -0.24055 c -1.50712,0 -3.02897,0.005 -4.54099,0.0196 v -7.08885 z"
     id="path584"
     inkscape:connector-curvature="0"
     style="fill:#ffffff;stroke-width:4.90918016" />
  <path
     d="m 165.33137,50.31969 -1.0162,5.00736 c -1.73785,8.5567 -3.48552,18.96416 -5.23319,27.5405 6.61758,0.34364 13.03879,0.75626 19.59745,1.35493 0.32401,-1.80657 0.89347,-5.37064 1.21748,-7.17231 l 1.32057,-7.3785 2.25331,15.0221 c 6.41139,0.64801 13.05351,1.42366 19.56308,2.34167 l -2.16495,-11.52675 q -2.17241,-11.08252 -4.3348,-22.16495 c -10.32401,-1.32057 -20.81983,-2.33677 -31.20275,-3.02405"
     id="path586"
     inkscape:connector-curvature="0"
     style="fill:#e31837;stroke-width:4.90918016" />
  <path
     d="M 76.269023,85.25474 V 52.40741 c -7.06431,0.79529 -14.315169,1.76731 -21.546392,2.89642 v 32.84241 c 7.162494,-1.11929 14.403535,-2.0864 21.546392,-2.89175"
     id="path588"
     inkscape:connector-curvature="0"
     style="fill:#e31837;stroke-width:4.90918016" />
  <path
     d="m 84.408444,51.55238 v 32.85739 c 15.925376,-1.52676 32.086406,-2.2975 48.065786,-2.2975 6.76976,0 15.17918,0.25037 21.95385,0.52529 -1.6053,-2.15023 -3.5837,-5.01228 -5.13009,-7.08886 -6.70594,-0.19637 -15.12519,-0.38783 -21.91458,-0.32401 l -0.89347,0.005 V 63.90912 l 0.87383,-0.005 q 2.47423,-0.0225 4.94354,-0.0245 l 1.94895,0.005 v 6.67157 c 7.21158,0.0196 14.5459,0.20128 21.79676,0.54492 V 59.51054 c -3.27933,-3.42661 -6.54885,-6.80904 -9.72018,-10.07364 -10.51546,-0.28473 -21.13402,-0.24546 -31.6053,0.12764 q -3.51267,3.62297 -7.02995,7.31468 l -1.53166,1.6053 v -8.54688 c -7.221404,0.38291 -14.526264,0.92292 -21.757486,1.61512"
     id="path590"
     inkscape:connector-curvature="0"
     style="fill:#e31837;stroke-width:4.90918016" />
</svg>
